<svg width="283" height="174" viewBox="0 0 283 174" fill="none" xmlns="http://www.w3.org/2000/svg">
<g id="Group 36064">
<g id="Rectangle 2213" filter="url(#filter0_d_533_36381)">
<rect x="37" y="33" width="208.333" height="100" rx="5" fill="white"/>
</g>
<g id="Landingpage-1920-Copy">
<g id="logo">
<path id="Fill-1" fill-rule="evenodd" clip-rule="evenodd" d="M208.523 106.183V101.258C208.515 101.083 208.533 100.908 208.578 100.738C208.628 100.628 208.717 100.541 208.828 100.493C209.006 100.41 209.199 100.363 209.395 100.355H209.438V100.062H207.221V100.358H207.268C207.463 100.353 207.658 100.383 207.843 100.447C207.967 100.481 208.075 100.562 208.143 100.672C208.204 100.84 208.229 101.019 208.217 101.198V104.58L204.823 100.063H203.028V100.359H203.075C203.272 100.343 203.469 100.364 203.658 100.42C203.704 100.449 203.744 100.488 203.774 100.534C203.804 100.579 203.823 100.631 203.832 100.685C203.885 100.98 203.906 101.281 203.894 101.581V104.706C203.904 104.929 203.89 105.152 203.854 105.373C203.807 105.479 203.722 105.565 203.616 105.612C203.422 105.704 203.211 105.754 202.997 105.76H202.953V106.053H205.231V105.75H205.184C204.951 105.764 204.719 105.72 204.508 105.622C204.391 105.568 204.298 105.472 204.248 105.354C204.206 105.138 204.19 104.918 204.2 104.698V100.75L208.267 106.18L208.523 106.183ZM198.333 100.978C198.741 101.59 198.936 102.32 198.889 103.054C198.942 103.796 198.744 104.534 198.327 105.149C198.144 105.376 197.911 105.557 197.646 105.678C197.381 105.799 197.092 105.856 196.801 105.844C196.49 105.866 196.179 105.814 195.892 105.694C195.605 105.573 195.351 105.386 195.149 105.149C194.738 104.528 194.544 103.788 194.598 103.045C194.546 102.309 194.74 101.576 195.149 100.962C195.352 100.741 195.598 100.564 195.873 100.444C196.148 100.324 196.445 100.263 196.745 100.264C197.045 100.266 197.341 100.33 197.615 100.453C197.888 100.576 198.133 100.754 198.333 100.978ZM199.083 105.297C199.38 105.004 199.613 104.653 199.767 104.266C199.92 103.878 199.992 103.463 199.976 103.047C199.996 102.624 199.922 102.202 199.761 101.81C199.6 101.419 199.354 101.068 199.043 100.782C198.403 100.223 197.576 99.927 196.728 99.9525C195.884 99.9272 195.063 100.227 194.435 100.79C194.13 101.073 193.889 101.418 193.73 101.802C193.571 102.187 193.497 102.601 193.513 103.017C193.496 103.439 193.568 103.861 193.724 104.254C193.881 104.648 194.118 105.003 194.422 105.298C195.071 105.854 195.898 106.16 196.753 106.16C197.607 106.16 198.434 105.854 199.083 105.298V105.297ZM186.093 100.322C186.301 100.309 186.51 100.303 186.711 100.303C187.083 100.293 187.455 100.337 187.815 100.432C188.11 100.527 188.376 100.695 188.588 100.921C188.837 101.187 189.021 101.507 189.127 101.856C189.259 102.283 189.323 102.728 189.317 103.175C189.337 103.713 189.225 104.247 188.993 104.733C188.827 105.086 188.545 105.372 188.194 105.542C187.8 105.693 187.379 105.763 186.957 105.749C186.733 105.769 186.508 105.737 186.298 105.655C186.247 105.618 186.205 105.57 186.175 105.515C186.145 105.459 186.129 105.398 186.126 105.335C186.105 105.168 186.094 104.793 186.094 104.215L186.093 100.322ZM186.809 106.049C187.188 106.054 187.567 106.038 187.945 106.003C188.241 105.965 188.531 105.887 188.806 105.769C189.108 105.644 189.381 105.457 189.607 105.219C189.849 104.958 190.034 104.649 190.15 104.313C190.284 103.927 190.351 103.52 190.347 103.112C190.358 102.556 190.234 102.006 189.986 101.509C189.737 101.039 189.352 100.654 188.881 100.405C188.239 100.104 187.534 99.9649 186.826 100C186.548 100 186.002 100.02 185.202 100.061L184.195 100.11V100.403H184.414C184.601 100.385 184.79 100.409 184.967 100.473C185.008 100.502 185.043 100.539 185.069 100.582C185.095 100.625 185.111 100.673 185.117 100.723C185.151 101.023 185.164 101.324 185.156 101.625V104.467C185.165 104.777 185.152 105.089 185.117 105.398C185.109 105.451 185.09 105.503 185.061 105.549C185.033 105.595 184.995 105.634 184.95 105.665C184.796 105.738 184.626 105.768 184.457 105.753H184.167V106.049H186.809ZM180.49 106.183V101.258C180.481 101.083 180.5 100.908 180.545 100.738C180.595 100.628 180.684 100.541 180.795 100.493C180.972 100.41 181.164 100.363 181.36 100.355H181.404V100.062H179.187V100.358H179.233C179.429 100.353 179.623 100.383 179.808 100.447C179.933 100.482 180.04 100.562 180.109 100.672C180.17 100.84 180.196 101.019 180.183 101.198V104.58L176.79 100.063H174.993V100.359H175.04C175.237 100.343 175.434 100.364 175.623 100.42C175.67 100.449 175.709 100.488 175.739 100.534C175.769 100.579 175.789 100.631 175.798 100.685C175.85 100.981 175.87 101.281 175.858 101.581V104.706C175.868 104.929 175.855 105.152 175.818 105.373C175.772 105.479 175.687 105.565 175.581 105.612C175.387 105.703 175.176 105.754 174.962 105.759H174.918V106.052H177.196V105.75H177.148C176.916 105.765 176.683 105.72 176.473 105.622C176.356 105.568 176.263 105.473 176.213 105.354C176.171 105.138 176.155 104.918 176.165 104.698V100.75L180.231 106.18L180.49 106.183ZM170.3 100.978C170.708 101.59 170.903 102.32 170.856 103.054C170.909 103.796 170.71 104.534 170.293 105.149C170.11 105.376 169.877 105.557 169.613 105.678C169.348 105.799 169.058 105.856 168.768 105.844C168.457 105.866 168.145 105.814 167.858 105.694C167.571 105.573 167.317 105.386 167.115 105.149C166.703 104.528 166.509 103.788 166.563 103.045C166.512 102.309 166.706 101.576 167.115 100.962C167.318 100.741 167.564 100.564 167.839 100.444C168.114 100.324 168.411 100.263 168.711 100.264C169.011 100.266 169.308 100.33 169.581 100.453C169.855 100.576 170.1 100.754 170.3 100.978ZM171.05 105.297C171.347 105.004 171.58 104.653 171.733 104.266C171.887 103.878 171.958 103.463 171.943 103.047C171.962 102.624 171.889 102.202 171.728 101.81C171.566 101.419 171.321 101.068 171.009 100.782C170.37 100.223 169.543 99.9269 168.694 99.9525C167.851 99.9272 167.03 100.227 166.402 100.79C166.096 101.073 165.856 101.418 165.697 101.802C165.538 102.187 165.464 102.601 165.48 103.017C165.463 103.439 165.534 103.861 165.691 104.254C165.847 104.648 166.085 105.003 166.388 105.298C167.038 105.854 167.864 106.16 168.719 106.16C169.574 106.16 170.401 105.854 171.05 105.298V105.297ZM162.543 106.047L162.92 104.213H162.633L162.623 104.248C162.53 104.672 162.295 105.052 161.958 105.324C161.621 105.597 161.2 105.747 160.767 105.748H160.323C160.108 105.766 159.891 105.737 159.688 105.665C159.646 105.643 159.609 105.612 159.581 105.574C159.552 105.536 159.532 105.492 159.522 105.446C159.491 105.184 159.479 104.92 159.488 104.656V101.573C159.477 101.266 159.492 100.96 159.533 100.656C159.539 100.607 159.557 100.561 159.584 100.52C159.611 100.479 159.646 100.445 159.688 100.42C159.863 100.36 160.047 100.338 160.231 100.354H160.538V100.058H157.633V100.354H157.811C157.998 100.336 158.186 100.36 158.363 100.425C158.404 100.454 158.438 100.491 158.464 100.534C158.49 100.577 158.507 100.625 158.513 100.675C158.549 100.973 158.562 101.274 158.553 101.574V104.467C158.563 104.778 158.549 105.089 158.513 105.398C158.506 105.451 158.487 105.503 158.458 105.549C158.429 105.595 158.391 105.634 158.347 105.665C158.193 105.738 158.023 105.768 157.853 105.753H157.633V106.049L162.543 106.047ZM163.363 83.6867C164.24 82.646 165.21 81.6876 166.261 80.8233C167.378 79.7686 168.848 79.1681 170.383 79.1392C172.883 79.2767 171.205 81.9725 170.662 83.2375C169.763 85.3342 168.963 87.245 168.156 89.3567C167.778 90.345 167.011 91.4808 167.489 92.5575C168.223 92.7942 168.656 92.2867 169.218 92.1642C169.608 92.9792 168.56 93.4375 167.768 93.905C166.981 94.5102 166.029 94.8627 165.038 94.9158C163.299 94.8067 164.538 92.0325 164.927 90.9858C166.038 88.0108 167.08 85.825 168.158 82.7358C168.325 82.2492 168.68 81.2358 168.102 81.0517C167.569 80.885 166.804 81.5517 166.374 81.8942C163.922 83.8519 162.069 86.4585 161.025 89.4175C160.297 90.8641 159.808 92.4189 159.576 94.0217C158.389 94.2519 157.231 94.6095 156.121 95.0883C157.704 91.0825 159.34 87.0983 160.913 83.0167C161.128 82.4558 161.453 81.7192 161.08 81.1075C159.695 80.9992 158.796 82.2292 157.959 83.0725C155.277 85.858 153.342 89.2759 152.333 93.0092C152.247 93.3388 152.209 93.6794 152.222 94.02C151.034 94.2482 149.876 94.6059 148.767 95.0867C150.084 91.6125 151.89 87.5967 153.113 83.6333C153.364 83.0495 153.423 82.4003 153.279 81.7808C152.977 81.2292 152.013 81.3642 151.386 81.6142C151.329 81.35 151.592 80.9242 151.719 80.66C153.384 80.3675 154.998 79.838 156.512 79.0875C156.872 81.1458 156.063 82.9208 155.563 84.4783C157.147 82.8417 159.488 79.2908 162.808 79.145C163.447 79.1167 164.296 79.2767 164.479 79.7625C164.837 80.705 163.601 82.8583 163.365 83.6925L163.363 83.6867ZM179.468 80.5433C176.224 82.0941 173.553 84.6285 171.833 87.7858C170.99 89.3408 170.056 91.555 170.274 93.6808C170.358 94.4992 170.786 95.4442 171.388 95.6467C172.288 95.95 173.593 95.2775 174.286 94.8608C176.404 93.4416 178.269 91.6765 179.803 89.6392C179.803 89.6958 179.758 89.7058 179.746 89.7508C179.276 90.8528 178.921 92.0002 178.687 93.175C178.578 93.6666 178.637 94.1805 178.853 94.635C179.548 95.4358 181.224 94.4442 181.919 94.0733C182.62 93.7249 183.275 93.2914 183.87 92.7825C183.752 92.6392 183.777 92.3525 183.703 92.165C183.188 92.1792 182.787 92.8808 182.143 92.6717C181.295 92.3925 182.176 90.4883 182.366 89.9758C183.085 88.0233 183.688 86.5467 184.428 84.8667C184.822 84.0691 185.156 83.2432 185.428 82.3958C184.465 82.9006 183.396 83.1699 182.308 83.1817C181.586 85.254 180.552 87.2042 179.243 88.965C178.053 90.5917 176.453 92.49 174.562 93.1758C173.267 93.6467 172.65 92.9258 172.779 91.4358C173.024 89.8135 173.572 88.2517 174.394 86.8317C175.087 85.5163 176.012 84.3369 177.124 83.35C179.253 81.5242 183.067 79.6783 186.374 81.1608C186.714 81.3125 187.033 81.6067 187.49 81.835C187.285 81.0999 187.155 80.3461 187.1 79.585C184.52 79.0369 181.831 79.373 179.466 80.5392L179.468 80.5433ZM105.801 83.7442C103.572 85.9892 101.363 89.02 101.118 92.6717C101.029 94.0275 101.38 95.365 102.235 95.6458C103.152 95.9483 104.42 95.2725 105.132 94.86C107.448 93.5208 109.116 91.38 110.649 89.6383C110.649 89.695 110.604 89.705 110.593 89.75C110.349 90.4475 110.049 91.0675 109.76 92.1083C109.445 93.2333 109.163 94.8433 110.427 94.9167C111.593 94.9833 113.277 93.8175 114.106 93.2883C114.532 93.0158 114.833 92.7425 114.552 92.165C114.028 92.1592 113.624 92.8758 112.991 92.6717C112.205 92.415 112.95 90.4825 113.158 89.9217C113.508 88.9758 113.847 88.1092 114.158 87.3383C114.846 85.6492 115.762 83.9292 116.275 82.3975C115.309 82.8962 114.241 83.1651 113.154 83.1833C112.43 85.2265 111.417 87.1553 110.145 88.9108C108.934 90.5542 107.369 92.3442 105.577 93.1217C104.193 93.7217 103.482 93.0517 103.625 91.3817C103.832 89.9663 104.285 88.5979 104.963 87.3383C105.517 86.1654 106.25 85.0856 107.136 84.1375C109.568 81.6375 114.641 79.1375 118.338 81.8358C118.121 81.1035 117.99 80.3484 117.947 79.5858C112.703 78.6217 108.619 80.8975 105.799 83.7408L105.801 83.7442ZM193.566 79.0833C192.084 79.8639 190.484 80.3951 188.829 80.6558C188.764 80.9658 188.446 81.3158 188.551 81.61C189.667 81.1933 190.649 81.2767 190.501 82.7333C190.262 83.8164 189.907 84.8705 189.443 85.8775C188.332 88.97 187.026 92.3825 185.933 95.085C187.025 94.6099 188.164 94.2523 189.332 94.0183C189.543 92.5939 189.975 91.2111 190.613 89.92C191.648 87.32 192.577 84.8 194.513 83.0133C195.663 81.9533 198.023 80.5525 199.583 81.8908C199.833 80.9658 200.216 80.17 200.475 79.2517C196.883 78.8075 194.909 81.2342 193.231 82.9017C193.504 81.8408 194.078 80.235 193.564 79.0833H193.566ZM124.578 79.14C123.05 79.8436 121.44 80.3528 119.786 80.6558C119.715 80.9583 119.42 81.3325 119.508 81.61C120.081 81.3717 121.044 81.2208 121.348 81.7225C121.518 82.354 121.478 83.0237 121.235 83.6308C120 87.5758 118.173 91.5833 116.889 95.0833C117.982 94.6092 119.121 94.2517 120.288 94.0167C120.817 91.2014 121.959 88.537 123.633 86.2125C124.725 84.5459 126.079 83.0671 127.644 81.8333C127.895 81.575 128.2 81.3754 128.537 81.249C128.874 81.1227 129.235 81.0726 129.594 81.1025C129.984 82.33 129.223 83.4875 128.814 84.5283C127.94 86.7492 127.031 88.8117 126.195 91.0408C125.796 92.1042 125.205 93.4408 125.695 94.6908C126.791 95.2017 127.778 94.5992 128.817 94.0167C129.377 93.7025 130.623 93.1 130.656 92.725C130.674 92.505 130.513 92.3192 130.544 92.1633C130.008 92.3083 129.538 92.7808 128.817 92.5567C128.361 92.0342 128.74 91.45 128.928 90.9283C129.953 88.095 130.898 85.7575 132.048 83.0675C132.648 81.665 134.161 79.2342 131.658 79.1375C129.755 79.0633 128.228 80.2308 126.977 81.2142C125.749 82.2193 124.628 83.3484 123.632 84.5833C124.118 83.02 125.034 81.1017 124.578 79.1375L124.578 79.14ZM201.98 85.7083C203.105 83.8084 204.673 82.2094 206.551 81.0483C207.418 80.5242 209.718 79.4592 209.895 81.215C210.045 82.715 208.179 84.0608 207.107 84.64C205.527 85.4561 203.754 85.8249 201.98 85.7067V85.7083ZM219.48 94.8608C218.446 95.4225 217.642 96.1158 215.968 95.9267C213.513 95.65 211.385 93.0292 210.006 91.4908C208.246 89.5275 206.805 87.5783 204.768 86.3825C207.285 86.0832 209.624 84.9344 211.4 83.1258C211.99 82.5697 212.43 81.8746 212.682 81.1042C212.973 79.5042 211.811 78.7992 210.452 78.8025C207.072 78.8092 204.623 81.6167 202.762 82.9575C204.678 77.4358 206.828 72.1567 208.501 66.3942C206.719 67.2045 204.849 67.807 202.929 68.19C202.876 68.5292 202.686 68.7317 202.652 69.0892C203.296 68.9225 204.245 68.7308 204.545 69.2558C205.013 70.0733 204.173 71.8575 203.878 72.7367C201.373 80.1533 198.396 88.0017 195.795 95.0833C196.918 94.6281 198.073 94.253 199.249 93.9608C199.735 91.4748 200.483 89.0472 201.479 86.7183C203.083 86.9583 203.979 88.2783 204.933 89.3558C206.806 91.475 208.447 93.8683 210.786 95.7017C211.999 96.752 213.529 97.3644 215.132 97.4408C217.254 97.4258 218.465 96.3375 219.758 95.3642V95.1975C219.626 95.125 219.527 95.0061 219.479 94.8642L219.48 94.8608ZM145.313 80.8242C145.361 80.8142 145.365 80.8458 145.369 80.8808C144.058 85.1142 142.223 88.7283 139.238 91.4917C138.763 91.9562 138.24 92.3704 137.679 92.7275C137.168 93.0425 136.289 93.5658 135.618 93.2892C134.358 92.7717 135.34 89.7675 135.729 88.7975C137.39 84.6475 140.419 81.4642 145.313 80.825L145.313 80.8242ZM137.122 83.8008C135.126 85.7325 132.783 89.0375 132.553 92.5025C132.462 93.88 132.716 95.2183 133.5 95.59C134.423 96.0275 135.786 95.2917 136.508 94.8608C138.602 93.4764 140.446 91.7485 141.964 89.75C141.964 89.8067 141.918 89.8167 141.909 89.8617C141.665 90.9625 140.113 93.13 140.909 94.4658C141.536 95.52 143.532 94.4192 144.253 94.0167C144.93 93.658 145.566 93.2248 146.148 92.725C146.066 92.5078 146.01 92.2818 145.981 92.0517C145.387 92.1925 144.96 92.7025 144.253 92.5567C143.768 91.5733 144.373 90.4192 144.699 89.5242C145.773 86.5908 146.823 83.665 147.931 80.8783C148.917 81.0629 149.85 81.4655 150.661 82.0567C150.419 81.3322 150.287 80.5754 150.271 79.8117C149.668 79.6246 149.054 79.4744 148.433 79.3617C149.933 75.0567 151.578 70.8908 152.891 66.3925C151.109 67.2043 149.238 67.8069 147.318 68.1883C147.263 68.5275 147.075 68.73 147.039 69.0875C147.642 68.9483 148.616 68.6983 148.933 69.2542C149.308 69.9092 148.801 71.22 148.543 71.9492C147.665 74.4442 146.679 77.2392 145.868 79.36C142.542 79.8341 139.466 81.3938 137.118 83.7967L137.122 83.8008ZM140.404 66.2275C140.076 67.9175 138.662 68.5158 137.338 69.2025C137.672 68.3967 139.1 65.4575 140.404 66.2275ZM140.071 68.6442C140.719 68.2358 142.208 67.2842 142.022 66.1175C141.903 65.3675 140.968 65.1542 140.016 65.275C137.583 65.5833 135.073 68.3642 134.833 70.8875C134.739 71.362 134.766 71.8527 134.911 72.314C135.057 72.7754 135.317 73.1925 135.667 73.5267C137.368 74.7958 139.842 73.6583 141.073 72.6833C142.051 71.91 144.063 69.7425 141.964 68.9783C142.018 69.2941 142.018 69.6168 141.964 69.9325C141.645 71.4325 139.303 73.5992 137.729 73.3017C136.548 73.08 136.425 71.1825 136.95 69.99C138.045 69.6821 139.094 69.2286 140.069 68.6417L140.071 68.6442ZM91.9242 75.8842C91.8575 75.5942 92.1933 75.1775 92.4242 74.8175C94.9125 70.9475 97.6308 67.18 101.508 64.5433C102.945 63.4547 104.63 62.7405 106.412 62.465C108.543 62.2767 110.357 63.4417 109.812 65.8342C109.057 69.1317 105.629 71.4942 102.846 72.8517C99.4082 74.4875 95.7123 75.5133 91.9233 75.8833L91.9242 75.8842ZM70.25 102.273C71.5369 102.629 72.8718 102.781 74.2058 102.723C74.7892 102.713 75.3392 102.783 75.3208 102.389C75.2967 101.889 73.8875 102.144 73.3133 102.108C71.4553 102.006 69.6666 101.368 68.1633 100.272C66.66 99.1749 65.5063 97.6664 64.8417 95.9283C64.0085 93.9442 63.7208 91.7735 64.0083 89.6408C64.8042 83.2242 69.4858 80.4742 75.155 78.9167C79.313 77.8537 83.5716 77.2328 87.86 77.0642C85.9732 80.8028 83.8895 84.4388 81.6175 87.9567C79.8675 90.5317 78.0133 92.8733 75.0425 94.2442C74.6417 94.43 74.0033 94.6675 73.5425 94.8625C73.1642 95.0208 72.3042 95.1258 72.7617 95.8733C73.095 95.97 73.4642 95.7225 73.7617 95.5917C76.2017 94.5358 79.96 94.665 82.9 95.3108C85.9858 96.0541 89.0054 97.0494 91.9283 98.2867C94.815 99.4417 97.6092 100.646 100.512 101.768C103.395 102.883 106.47 104.137 110.151 104.013C111.318 102.3 113.038 100.916 114.442 99.3533C114.442 99.3533 114.818 99.2033 114.554 99.1292C114.343 99.0299 114.104 99.0089 113.879 99.07C113.655 99.1311 113.459 99.2702 113.328 99.4625C111.09 101.554 106.799 100.625 103.854 99.6875C98.6117 98.0158 94.425 95.7275 89.1433 94.0158C86.2142 93.0667 82.7267 92.1367 79.2267 92.7242C84.5833 88.7767 87.59 82.4467 91.255 76.7833C98.6767 75.885 105.255 74.2 109.588 69.9892C110.822 68.7917 112.701 66.8433 112.263 64.2617C112.119 63.7602 111.863 63.2977 111.516 62.9083C111.169 62.5188 110.738 62.2124 110.257 62.0117C107.923 60.99 104.608 62.0117 102.623 62.8533C96.2067 65.5783 91.4633 70.7283 88.245 76.2158C82.0392 76.5542 75.98 77.4 71.1933 79.3042C66.4867 81.1825 62.6733 84.3083 62 90.2575V92.8967C62.2428 95.1186 63.1655 97.2114 64.642 98.8895C66.1186 100.568 68.077 101.749 70.25 102.273ZM131.768 60.5H131.879C130.898 63.0883 129.987 65.7433 129.037 68.3608C129.978 67.2542 131.413 65.4775 133.383 65.2717C133.622 65.2225 133.869 65.2221 134.108 65.2703C134.347 65.3186 134.575 65.4146 134.776 65.5525C134.84 66.8783 134.109 67.9642 133.662 69.09C133.438 69.6583 133.204 70.2567 132.995 70.8308C132.799 71.3667 132.406 72.03 132.718 72.6275C133.263 72.7217 133.512 72.2408 133.832 72.2892C133.875 72.4333 133.887 72.6075 133.998 72.6825C133.099 73.235 131.998 74.3675 130.654 73.9183C130.478 72.5233 131.095 71.3275 131.546 70.1567C131.98 69.0283 132.735 67.8058 132.605 66.5075C131.071 66.7442 130.082 68.0233 129.261 69.1458C128.33 70.4395 127.736 71.9449 127.533 73.5258C126.751 73.6742 125.986 73.8998 125.248 74.1992C126.645 70.6083 127.998 66.9717 129.093 63.0825C127.692 63.7029 126.167 63.9913 124.636 63.925C123.378 67.0401 122.372 70.2509 121.628 73.5267C120.843 73.6671 120.077 73.8929 119.342 74.2C120.642 70.7942 122.008 67.45 123.131 63.8667C122.048 63.8308 121.075 63.585 120.067 63.585C118.361 63.585 117.245 64.585 116.278 65.2133C115.921 64.8317 116.315 64.5942 116.556 64.3717C117.307 63.6262 117.945 62.775 118.45 61.845C122.616 62.6667 129.36 63.2708 131.768 60.5Z" fill="#2B2B2B"/>
</g>
</g>
</g>
<defs>
<filter id="filter0_d_533_36381" x="0" y="0" width="282.333" height="174" filterUnits="userSpaceOnUse" color-interpolation-filters="sRGB">
<feFlood flood-opacity="0" result="BackgroundImageFix"/>
<feColorMatrix in="SourceAlpha" type="matrix" values="0 0 0 0 0 0 0 0 0 0 0 0 0 0 0 0 0 0 127 0" result="hardAlpha"/>
<feMorphology radius="1" operator="dilate" in="SourceAlpha" result="effect1_dropShadow_533_36381"/>
<feOffset dy="4"/>
<feGaussianBlur stdDeviation="18"/>
<feComposite in2="hardAlpha" operator="out"/>
<feColorMatrix type="matrix" values="0 0 0 0 0.87451 0 0 0 0 0.803922 0 0 0 0 0.94902 0 0 0 0.3 0"/>
<feBlend mode="normal" in2="BackgroundImageFix" result="effect1_dropShadow_533_36381"/>
<feBlend mode="normal" in="SourceGraphic" in2="effect1_dropShadow_533_36381" result="shape"/>
</filter>
</defs>
</svg>
