<svg width="283" height="174" viewBox="0 0 283 174" fill="none" xmlns="http://www.w3.org/2000/svg">
<g id="Group 36065">
<g id="Rectangle 2213" filter="url(#filter0_d_533_36386)">
<rect x="37.3335" y="33" width="208.333" height="100" rx="5" fill="white"/>
</g>
<path id="Path 5177" d="M127.698 72.8683L119.425 86.8075V96.1833C120.378 98.44 122.785 98.74 125.092 98.8408V100.145H108.892V98.8408C111.202 98.7358 114.006 98.3892 114.758 96.8858V87.2117L106.334 72.9708C105.815 71.9192 105.006 71.0387 104.001 70.4343C102.996 69.8298 101.839 69.5269 100.667 69.5617V68.2575H114.756V69.5617C112.099 69.7117 111.246 70.2142 110.495 70.8117L118.317 84.35L125.99 70.8617C125.187 70.26 124.135 69.7067 121.475 69.5575V68.2533H133.508V69.5575C132.326 69.5089 131.155 69.7934 130.128 70.3785C129.1 70.9636 128.258 71.8258 127.697 72.8667L127.698 72.8683ZM144.145 100.597C143.188 100.683 142.233 100.406 141.471 99.8211C140.709 99.2359 140.196 98.3852 140.033 97.4383C138.328 99.2433 136.122 100.597 134.015 100.597C131.308 100.597 129 98.9417 129 96.0817C128.985 94.6746 129.347 93.2891 130.05 92.07L140.025 88.4592V84.7558C140.025 82.4992 138.975 80.3458 136.716 80.3458C135.362 80.3458 134.059 81.9992 133.958 84.5575L129.443 85.3075V84.8075C130.948 80.2925 135.912 78.5392 138.317 78.5392C142.88 78.5392 144.535 80.9458 144.484 84.6558L144.334 95.185C144.284 97.2408 145.384 97.7425 146.389 97.7425C147.4 97.6118 148.318 97.0896 148.947 96.2883V97.7425C147.859 99.0458 145.9 100.6 144.145 100.6L144.145 100.597ZM134.116 92.4242C133.881 93.2732 133.763 94.1505 133.765 95.0317C133.765 96.5317 134.618 98.04 136.273 98.04C137.663 98.0176 138.992 97.4611 139.984 96.4858L140.035 89.7167C138.73 90.3217 135.52 91.7217 134.118 92.4217L134.116 92.4242ZM149.409 100.146V98.9933C151.665 98.8425 152.317 98.3417 152.718 97.4883V71.5167C152.718 69.8125 152.468 69.11 149.007 68.81V67.81L158.183 65.5L158.485 66.3525L157.03 68.1575V97.4908C157.53 98.4908 158.485 98.845 160.54 98.9958V100.151L149.409 100.146ZM172.575 100.547C167.31 100.547 163.249 96.3842 163.249 90.5717C163.249 83.4517 167.612 78.5875 173.78 78.5875C178.743 78.5875 181.501 81.3958 181.501 85.8583V86.76L167.963 86.655C167.845 87.5022 167.795 88.3573 167.812 89.2125C167.812 94.3267 171.022 97.6858 175.284 97.6858C177.84 97.6858 179.145 96.7842 181.15 95.0792L181.9 96.2342C179.044 98.8442 176.687 100.55 172.575 100.55V100.547ZM173.027 80.1392C170.52 80.1392 168.765 82.1442 168.163 85.3058L176.988 85.2008C176.988 82.5483 175.335 80.1392 173.027 80.1392Z" fill="#2B2B2B"/>
</g>
<defs>
<filter id="filter0_d_533_36386" x="0.333496" y="0" width="282.333" height="174" filterUnits="userSpaceOnUse" color-interpolation-filters="sRGB">
<feFlood flood-opacity="0" result="BackgroundImageFix"/>
<feColorMatrix in="SourceAlpha" type="matrix" values="0 0 0 0 0 0 0 0 0 0 0 0 0 0 0 0 0 0 127 0" result="hardAlpha"/>
<feMorphology radius="1" operator="dilate" in="SourceAlpha" result="effect1_dropShadow_533_36386"/>
<feOffset dy="4"/>
<feGaussianBlur stdDeviation="18"/>
<feComposite in2="hardAlpha" operator="out"/>
<feColorMatrix type="matrix" values="0 0 0 0 0.87451 0 0 0 0 0.803922 0 0 0 0 0.94902 0 0 0 0.3 0"/>
<feBlend mode="normal" in2="BackgroundImageFix" result="effect1_dropShadow_533_36386"/>
<feBlend mode="normal" in="SourceGraphic" in2="effect1_dropShadow_533_36386" result="shape"/>
</filter>
</defs>
</svg>
