<svg width="283" height="174" viewBox="0 0 283 174" fill="none" xmlns="http://www.w3.org/2000/svg">
<g id="Group 36066">
<g id="Rectangle 2214" filter="url(#filter0_d_533_36389)">
<rect x="37.667" y="33" width="208.333" height="100" rx="5" fill="white"/>
</g>
<g id="Group 934">
<path id="Path 1610" fill-rule="evenodd" clip-rule="evenodd" d="M175.299 89.1368H171.267L183.1 65.4535H187.746L199.579 89.1368H195.503L192.391 82.9068H178.411L175.299 89.1368ZM190.921 79.9702L185.399 68.9168L179.878 79.9702H190.921ZM156.838 64.8318L159.595 61.5927H165.727L156.838 64.8318ZM148.964 89.1827H169.764V86.4927H152.554V78.3127H165.332V75.531H152.554V68.1102H169.658V65.4793H148.966V89.1852L148.964 89.1827ZM120.703 65.4527H136.026C140.109 65.4527 143.457 68.5443 143.457 72.3227C143.402 73.9522 142.785 75.5125 141.709 76.7381C140.634 77.9636 139.167 78.7786 137.558 79.0443L144.754 89.136H140.533L133.443 79.1927H123.938V89.136H120.703V65.4527ZM136.199 68.2702L136.413 68.3002L136.622 68.341L136.828 68.3935L137.029 68.4568L137.226 68.5302L137.416 68.6135L137.601 68.7052L137.78 68.806L137.953 68.916L138.12 69.0335L138.28 69.1585L138.433 69.2902L138.579 69.4285L138.718 69.5727L138.848 69.7218L138.97 69.8768L139.084 70.036L139.19 70.1977L139.287 70.3643L139.376 70.531L139.459 70.7027L139.531 70.8743L139.593 71.0477L139.649 71.2235L139.695 71.401L139.733 71.5802L139.764 71.7618L139.785 71.946L139.799 72.1327L139.803 72.3227L139.799 72.5135L139.785 72.7002L139.764 72.8843L139.733 73.066L139.695 73.246L139.649 73.4235L139.593 73.5993L139.531 73.7727L139.459 73.9452L139.376 74.1168L139.287 74.2835L139.19 74.4502L139.084 74.6118L138.97 74.771L138.848 74.926L138.718 75.0752L138.579 75.2193L138.433 75.3577L138.28 75.4902L138.12 75.6152L137.953 75.7327L137.78 75.8427L137.601 75.9435L137.416 76.0352L137.226 76.1185L137.029 76.1918L136.828 76.2552L136.622 76.3077L136.413 76.3485L136.199 76.3785L135.98 76.3968L135.73 76.4043H124.11V68.2485H135.721L135.979 68.256L136.198 68.2743L136.199 68.2702ZM100.804 64.0627C98.4002 64.0196 96.0377 64.6932 94.0177 65.9977C91.9978 67.3021 90.4118 69.1782 89.4619 71.3872C88.512 73.5961 88.2412 76.0378 88.6838 78.4012C89.1265 80.7646 90.2627 82.9427 91.9477 84.6582C93.6326 86.3736 95.7901 87.5486 98.1452 88.0335C100.5 88.5185 102.946 88.2914 105.172 87.3812C107.398 86.471 109.302 84.9189 110.642 82.9227C111.983 80.9264 112.698 78.5763 112.699 76.1718C112.726 72.9889 111.489 69.9253 109.259 67.6545C107.028 65.3837 103.987 64.0917 100.804 64.0627ZM100.804 61.3335C92.0602 61.3335 84.971 67.9785 84.971 76.1718C84.971 84.3652 92.0627 91.0102 100.804 91.0102C109.546 91.0102 116.638 84.3652 116.638 76.1718C116.638 67.9785 109.546 61.3335 100.804 61.3335ZM61.8335 89.1835V65.4793H64.8043V86.5902H82.396V89.1852L61.8335 89.1835ZM201.293 89.1835H222.155V86.4877H204.562V65.4793H201.293V89.1852V89.1835ZM126.399 104.583H124.628L129.827 95.3677H131.869L137.068 104.583H135.277L133.909 102.159H127.768L126.399 104.583ZM133.264 101.018L130.838 96.7168L128.411 101.018H133.264ZM140.431 95.3685H146.871C147.638 95.3158 148.395 95.5665 148.979 96.0664C149.564 96.5664 149.928 97.2758 149.994 98.0418C149.951 98.6985 149.679 99.3193 149.227 99.797C148.774 100.275 148.169 100.579 147.515 100.658L150.539 104.584H148.768L145.789 100.715H142.138V104.584H140.434V95.3685H140.431ZM146.944 96.4652L147.034 96.4768L147.122 96.4927L147.205 96.5127L147.289 96.5368L147.372 96.5652L147.455 96.5968L147.533 96.6327L147.608 96.6718L147.681 96.7143L147.751 96.7602L147.819 96.8085L147.883 96.8602L147.944 96.9143L148.003 96.9702L148.058 97.0285L148.109 97.0885L148.158 97.1502L148.202 97.2135L148.243 97.2777L148.28 97.3435L148.314 97.4102L148.344 97.4768L148.371 97.5443L148.394 97.6127L148.413 97.6818L148.429 97.7518L148.442 97.8227L148.451 97.8943L148.457 97.9668V98.041V98.1152L148.451 98.1877L148.442 98.2593L148.429 98.3302L148.413 98.4002L148.394 98.4693L148.371 98.5377L148.344 98.6052L148.314 98.6718L148.28 98.7385L148.243 98.8043L148.202 98.8685L148.158 98.9318L148.109 98.9935L148.058 99.0535L148.003 99.1118L147.944 99.1677L147.883 99.2218L147.819 99.2735L147.751 99.3218L147.681 99.3677L147.608 99.4101L147.533 99.4493L147.455 99.4852L147.372 99.5177L147.289 99.546L147.205 99.5702L147.122 99.5902L147.034 99.606L146.944 99.6177L146.852 99.6243H146.746H142.208V96.451H146.746H146.854L146.946 96.4576L146.944 96.4652ZM114.377 95.3685H120.817C121.584 95.3161 122.341 95.5668 122.925 96.0667C123.509 96.5667 123.873 97.2759 123.939 98.0418C123.925 98.5011 123.789 98.9483 123.546 99.338C123.302 99.7276 122.96 100.046 122.553 100.26C122.003 100.56 121.385 100.714 120.758 100.707C120.425 100.719 120.082 100.72 119.731 100.715H116.082V104.584H114.379V95.3685H114.377ZM120.889 96.4652L120.979 96.4768L121.067 96.4927L121.15 96.5127L121.233 96.5368L121.317 96.5652L121.4 96.5968L121.478 96.6327L121.554 96.6718L121.627 96.7143L121.697 96.7602L121.764 96.8085L121.829 96.8602L121.89 96.9143L121.948 96.9702L122.003 97.0285L122.054 97.0885L122.103 97.1502L122.147 97.2135L122.188 97.2777L122.225 97.3435L122.259 97.4102L122.289 97.4768L122.316 97.5443L122.339 97.6127L122.359 97.6818L122.374 97.7518L122.387 97.8227L122.396 97.8943L122.402 97.9668V98.041V98.1152L122.396 98.1877L122.387 98.2593L122.374 98.3302L122.359 98.4002L122.339 98.4693L122.316 98.5377L122.289 98.6052L122.259 98.6718L122.225 98.7385L122.188 98.8043L122.147 98.8685L122.103 98.9318L122.054 98.9935L122.003 99.0535L121.948 99.1118L121.89 99.1677L121.829 99.2218L121.764 99.2735L121.697 99.3218L121.627 99.3677L121.554 99.4101L121.478 99.4493L121.4 99.4852L121.317 99.5177L121.233 99.546L121.15 99.5702L121.067 99.5902L120.979 99.606L120.889 99.6177L120.798 99.6243H120.692H116.154V96.451H120.691H120.799L120.891 96.4576L120.889 96.4652ZM160.274 101.623L161.837 101.523C161.891 101.944 162.071 102.339 162.353 102.658C162.704 103.001 163.138 103.248 163.613 103.374C164.235 103.564 164.884 103.656 165.534 103.647C166.099 103.655 166.663 103.586 167.208 103.441C167.612 103.346 167.985 103.151 168.292 102.873C168.401 102.772 168.488 102.65 168.55 102.514C168.611 102.379 168.644 102.232 168.648 102.083C168.648 101.94 168.617 101.798 168.558 101.667C168.498 101.537 168.412 101.42 168.304 101.326C167.976 101.06 167.59 100.874 167.178 100.783C166.839 100.687 166.099 100.534 164.947 100.333C164.126 100.21 163.318 100.018 162.53 99.7577C162.021 99.5852 161.561 99.2905 161.192 98.8993C160.91 98.5837 160.754 98.1751 160.754 97.7518C160.763 97.2655 160.954 96.8003 161.291 96.4493C161.72 96.0024 162.264 95.6831 162.863 95.5268C163.609 95.3104 164.384 95.2049 165.161 95.2135C165.993 95.2006 166.821 95.3129 167.619 95.5468C168.243 95.7148 168.809 96.0502 169.255 96.5168C169.623 96.9149 169.84 97.4285 169.87 97.9693L168.281 98.0577C168.248 97.7855 168.152 97.5248 168.002 97.2959C167.851 97.067 167.649 96.8762 167.412 96.7385C166.737 96.3998 165.984 96.246 165.23 96.2927C164.477 96.2417 163.722 96.3813 163.037 96.6985C162.844 96.7834 162.678 96.9191 162.557 97.0912C162.436 97.2633 162.364 97.4652 162.348 97.6751C162.351 97.8423 162.397 98.0058 162.482 98.1494C162.568 98.2929 162.69 98.4113 162.836 98.4927C163.629 98.8435 164.473 99.0652 165.336 99.1493C166.272 99.2839 167.199 99.4802 168.109 99.7368C168.717 99.9128 169.272 100.236 169.725 100.677C170.061 101.03 170.247 101.5 170.244 101.988C170.234 102.505 170.03 103 169.673 103.373C169.223 103.849 168.655 104.199 168.028 104.386C167.249 104.636 166.434 104.758 165.616 104.746C164.653 104.77 163.692 104.647 162.767 104.381C162.077 104.186 161.453 103.807 160.962 103.284C160.541 102.833 160.298 102.244 160.277 101.628L160.274 101.623ZM154.678 104.584V98.071H156.344V104.583L154.678 104.584ZM154.678 97.0935V95.3693H156.344V97.0935H154.678ZM76.3377 73.7835H79.0793L83.1927 65.646H79.7027L76.3377 73.7835Z" fill="#2B2B2B"/>
</g>
</g>
<defs>
<filter id="filter0_d_533_36389" x="0.666992" y="0" width="282.333" height="174" filterUnits="userSpaceOnUse" color-interpolation-filters="sRGB">
<feFlood flood-opacity="0" result="BackgroundImageFix"/>
<feColorMatrix in="SourceAlpha" type="matrix" values="0 0 0 0 0 0 0 0 0 0 0 0 0 0 0 0 0 0 127 0" result="hardAlpha"/>
<feMorphology radius="1" operator="dilate" in="SourceAlpha" result="effect1_dropShadow_533_36389"/>
<feOffset dy="4"/>
<feGaussianBlur stdDeviation="18"/>
<feComposite in2="hardAlpha" operator="out"/>
<feColorMatrix type="matrix" values="0 0 0 0 0.87451 0 0 0 0 0.803922 0 0 0 0 0.94902 0 0 0 0.3 0"/>
<feBlend mode="normal" in2="BackgroundImageFix" result="effect1_dropShadow_533_36389"/>
<feBlend mode="normal" in="SourceGraphic" in2="effect1_dropShadow_533_36389" result="shape"/>
</filter>
</defs>
</svg>
