<svg width="283" height="174" viewBox="0 0 283 174" fill="none" xmlns="http://www.w3.org/2000/svg">
<g id="Group 36067">
<g id="Rectangle 2213" filter="url(#filter0_d_533_36393)">
<rect x="37" y="33" width="208.333" height="100" rx="5" fill="white"/>
</g>
<g id="Group 935">
<path id="Path 48" d="M154.462 97.5025C150.129 97.4191 147.009 93.8666 142.421 95.1258C141.725 95.73 140.856 95.2091 140.077 95.035C134.494 93.8683 130.677 100.004 125.171 96.8158C126.114 97.7254 127.244 98.4179 128.483 98.8449C131.597 99.8883 134.628 98.3725 136.972 96.4283C137.925 95.6916 139.456 95.2108 140.434 95.7741C138.21 96.8275 136.2 98.2818 134.504 100.064L135.406 100.76L138.231 98.0275C139.307 97.1991 140.392 96.255 141.731 96.0275C143.913 97.269 145.873 98.8672 147.528 100.756L148.481 99.8866C146.727 98.2119 144.727 96.8155 142.551 95.7458V95.6625C145.623 94.7516 147.271 98.0791 149.913 98.6025C151.254 99.0639 152.701 99.1256 154.077 98.7801C155.453 98.4347 156.699 97.697 157.663 96.6566C156.671 97.1718 155.575 97.4551 154.458 97.485M126.261 88.9558C127.47 90.7283 127.917 93.1958 130.203 94.1983C130.725 94.4966 131.586 94.4133 131.86 94.8858C131.185 94.8546 130.514 94.7547 129.86 94.5875C126.693 94.0658 123.102 94.6708 120.676 92.3758L121.759 93.7175C125.071 97.6591 130.869 96.0116 134.842 94.935C131.281 94.685 129.244 90.835 126.254 88.9716L126.261 88.9558ZM156.447 88.7325C153.59 90.5958 151.602 94.6291 148.05 94.8441L153.722 96.0108C155.318 96.2364 156.945 96.0016 158.412 95.334C159.88 94.6665 161.126 93.5939 162.004 92.2425C161.133 92.9796 160.091 93.4864 158.973 93.7166C156.373 94.1966 153.556 94.28 150.956 94.6691L151.089 94.5858C154.195 94.3783 155.371 90.9191 156.447 88.7466V88.7325ZM141.677 86.3216C142.066 87.0175 141.851 88.0191 141.892 88.8808L144.226 88.5333C143.886 88.3591 143.447 88.3591 143.191 87.9291C142.801 87.5399 143.058 87.0183 143.1 86.6291C142.594 86.4958 142.031 86.67 141.677 86.3216ZM130.911 85.6341L128.924 87.7541C132.259 90.7528 136.527 92.5081 141.007 92.7233L140.792 92.4166C140.724 91.5482 140.766 90.6746 140.916 89.8166C137.153 89.7496 133.556 88.2545 130.854 85.6341H130.911ZM151.922 85.4191C151.19 86.2874 150.31 87.0192 149.322 87.5808C148.494 88.5808 147.55 89.9658 146.208 90.2641C145.125 88.6074 143.392 90.14 141.918 89.7508V92.815C146.465 92.3433 150.713 90.8691 154.001 87.6141L151.922 85.4191ZM134.166 83.5558C134.291 83.9033 135.069 84.3841 134.506 84.7649C133.677 84.6324 133.04 85.1125 132.303 85.245C132.038 85.0708 131.74 84.7233 131.433 84.8558C134.045 87.2011 137.352 88.6291 140.85 88.9225C140.699 87.9919 140.657 87.0469 140.726 86.1067L140.246 86.1975C137.973 85.9843 135.826 85.0599 134.109 83.5558H134.166ZM122.572 83.5558C123.483 86.6283 123.136 90.2642 126.249 92.3892C125.346 92.2567 124.592 91.4366 123.872 90.8733C121.446 89.2666 118.075 88.6233 116.634 85.9041C116.851 86.7699 117.218 87.5912 117.717 88.3308C120.102 92.0575 124.169 93.1008 128.07 93.5316C124.964 90.7408 125.61 86.3183 122.496 83.5525L122.572 83.5558ZM160.345 83.2083C157.355 86.1066 157.744 90.4875 155.061 93.3866L159.516 92.4341C162.506 91.4816 165.761 88.4508 166.324 85.5441C164.759 88.2774 161.819 89.0141 159.475 90.4383C158.481 90.8775 157.818 92.045 156.75 92.1775C159.789 90.0108 159.4 86.2399 160.27 83.2091L160.345 83.2083ZM149.256 82.8191L148.866 83.3408C148.651 84.0283 149.338 83.9041 149.645 84.2933C150.117 84.5916 149.819 85.0225 149.471 85.2875C148.907 85.7183 149.992 86.1158 149.338 86.5458C150.007 86.05 150.631 85.4956 151.201 84.8892C150.945 85.1042 150.729 84.7983 150.556 84.6242C150.44 83.8542 149.529 83.4649 149.181 82.8183L149.256 82.8191ZM136.094 80.3925L134.189 82.3799C135.774 83.7259 137.69 84.6235 139.738 84.9799C139.44 84.8312 139.175 84.6241 138.959 84.3708C138.742 84.1176 138.579 83.8234 138.479 83.5058C138.568 83.4404 138.642 83.356 138.695 83.2585C138.749 83.1611 138.779 83.0532 138.786 82.9425C138.901 82.7316 139.06 82.5482 139.254 82.4052C139.447 82.2621 139.669 82.1628 139.904 82.1141C138.363 82.3808 137.137 81.345 136.094 80.3925ZM144.5 80.6075L143.978 80.3925L144.111 80.6491C143.854 81.1708 143.589 80.475 143.332 80.6908C142.974 80.7165 142.618 80.6105 142.332 80.3925C141.554 80.3925 141.504 81.5591 140.601 81.4691C141.165 82.2975 141.685 81.08 142.423 81.4691C142.506 82.2066 143.161 81.8166 143.632 81.9908C143.703 81.8202 143.824 81.6751 143.98 81.5746C144.135 81.4741 144.317 81.4228 144.501 81.4275C144.738 81.3116 144.94 81.1346 145.085 80.9149C145.231 80.6952 145.315 80.4407 145.33 80.1775C144.988 80.0475 144.756 80.3925 144.5 80.6075ZM144.931 79.1333C144.889 79.5224 144.409 79.5225 144.152 79.6966C144.069 79.3491 144.541 79.0475 144.927 79.1308L144.931 79.1333ZM120.541 78.09C120.673 80.6492 119.157 83.0591 120.284 85.5025C120.458 86.1066 121.021 86.5858 121.021 87.1583C119.465 84.1683 115.696 81.9991 114.694 78.8766C114.006 83.945 119.373 87.2325 122.843 89.2283C121.062 85.9325 122.106 81.4275 120.541 78.09ZM162.173 77.7508C160.741 81.2125 161.693 85.6766 159.961 89.0141C163.688 86.8474 168.795 83.3416 168.061 78.3141V78.3975C167.15 81.71 163.34 83.7308 161.916 86.845C161.866 86.845 161.741 86.895 161.741 86.845C163.821 84.2433 162.381 80.6491 162.173 77.7508ZM138.653 77.7508L136.922 79.6966C137.887 80.5341 139.074 81.0747 140.339 81.2533V80.6075C140.463 80.3008 140.77 80.26 141.076 80.3008C140.637 79.8283 141.026 79.2175 141.076 78.7441C140.621 78.7999 140.158 78.7377 139.733 78.5637C139.308 78.3896 138.935 78.1095 138.65 77.75L138.653 77.7508ZM149.311 78.09C149.179 78.0067 149.046 77.8741 149.046 77.7508C148.699 78.14 148.616 78.9599 147.88 78.8774C147.789 79.3908 147.184 79.3083 147.011 79.565C147.921 79.9125 147.665 78.7366 148.526 78.8274C149.396 79.6558 148.443 80.6908 148.137 81.5191C147.185 81.6025 146.365 80.9974 145.28 81.0799V81.2208C146.406 81.3533 147.28 82.3467 148.485 81.7425C148.531 81.3702 148.718 81.0295 149.006 80.79C149.221 80.9641 149.139 81.3533 149.354 81.4358C150.339 80.3403 151.036 79.017 151.383 77.585C150.653 78.0075 149.783 77.4025 149.311 78.09ZM145.759 78.6116C145.883 78.6116 146.016 78.6116 146.057 78.57C146.231 78.0483 145.626 78.0483 145.536 77.6175C144.756 77.9075 145.708 78.14 145.761 78.6116H145.759ZM138.131 77.0791L137.742 76.9466L137.353 77.6008L138.131 77.0791ZM134.819 76.2508C135.13 77.2602 135.599 78.2135 136.211 79.0749L136.989 78.1641C137.016 77.7708 136.923 77.3784 136.724 77.0383L136.682 77.5517C136.467 77.3358 135.986 77.2125 136.078 76.7733C135.573 76.6658 135.316 76.3174 134.795 76.2516L134.819 76.2508ZM130.836 75.0416C131.009 75.7211 131.098 76.4195 131.101 77.1208C131.051 76.8641 131.746 76.475 131.267 76.21C131.358 75.8208 131.317 75.3816 131.706 75.1749C131.334 75.1008 131.077 75.2333 130.812 75.0175L130.836 75.0416ZM129.925 75.0416C128.997 75.2222 128.046 75.2504 127.109 75.125L127.763 79.0258C128.152 78.6783 128.111 77.9424 128.236 77.3691C128.326 76.6316 129.188 76.7641 129.453 76.0766C129.751 75.9441 129.926 76.3333 130.141 76.4658C130.005 76.2529 129.914 76.0148 129.873 75.7657C129.831 75.5167 129.841 75.2619 129.901 75.0166L129.925 75.0416ZM126.198 75.0416C125.251 75.1696 124.295 75.2139 123.341 75.1741C123.507 79.5834 125.209 83.7959 128.152 87.0833L130.314 85.0042C129.801 84.1758 128.757 84.01 128.541 83.0991C128.285 83.53 127.887 83.0158 127.631 82.8425C127.498 82.0558 126.413 82.1466 126.198 81.4924C125.767 82.1883 125.593 80.8883 125.121 81.1941C124.732 80.9291 124.815 80.4983 124.6 80.2C124.506 79.9429 124.484 79.6649 124.536 79.3962C124.589 79.1276 124.714 78.8785 124.898 78.6758C125.072 78.5517 125.337 78.5016 125.42 78.7666C125.726 78.7666 125.726 78.5925 125.941 78.3775C126.372 77.9383 126.505 78.725 126.77 78.8083C126.349 77.5889 126.147 76.3047 126.174 75.015L126.198 75.0416ZM152.931 75.0416L152.799 76.8141C152.931 77.0292 153.445 77.3774 152.973 77.5924C152.906 77.6129 152.836 77.616 152.768 77.6014C152.7 77.5868 152.636 77.5551 152.584 77.5091C152.114 79.3153 151.19 80.9714 149.901 82.3208C150.156 82.5888 150.433 82.8354 150.729 83.0583L150.903 82.7099C151.599 82.7933 151.681 83.7933 151.856 84.3083C153.485 82.5603 154.647 80.4296 155.235 78.1133C155.582 77.1608 155.367 75.9933 155.798 75.0825C154.834 75.1752 153.862 75.139 152.908 74.975L152.931 75.0416ZM156.567 74.9925C156.589 76.8245 156.244 78.6423 155.553 80.3391C154.862 82.0358 153.838 83.5772 152.542 84.8725L154.662 87.0008C157.658 83.7194 159.392 79.4817 159.556 75.0416C158.538 74.9758 157.453 75.2733 156.583 74.9258L156.567 74.9925ZM150.24 74.9925L150.679 75.4724C150.588 76.2099 151.581 76.5158 151.673 77.0291L151.971 75.1658C151.383 75.0166 150.696 75.2325 150.216 74.9258L150.24 74.9925ZM133.676 73.7425C133.378 73.7841 132.989 73.6516 132.766 73.8666C132.751 74.2327 132.843 74.5953 133.031 74.91C133.031 75.2583 132.641 75.1258 132.426 75.1667L132.376 75.5142C132.293 75.8617 131.905 75.8616 131.64 75.9533L131.731 76.9058C132 77.1408 132.21 77.4354 132.345 77.7661C132.48 78.0969 132.536 78.4546 132.509 78.8108C132.898 79.4566 132.6 80.3683 133.155 80.9725C133.42 81.4941 133.071 81.8008 132.816 82.19L133.072 82.2733L135.499 79.8567C134.583 78.7793 133.931 77.5037 133.594 76.1308L133.329 76.04C133.324 76.3796 133.22 76.7105 133.031 76.9925L132.641 76.645C132.426 76.43 132.856 76.3883 132.94 76.3883C133.114 76.0816 132.816 75.6925 132.99 75.4358C133.156 75.6092 133.329 75.825 133.594 75.7425C133.735 75.6433 133.837 75.4985 133.884 75.3326C133.931 75.1667 133.919 74.9898 133.851 74.8316L133.676 73.7425ZM140.566 71.3983L140.699 71.5308C141.345 72.4416 140.003 72.6975 139.572 72.9633C138.702 73.3525 138.96 74.3875 138.702 75.0833C138.271 75.2158 138.355 74.6025 138.139 74.4291C138.097 74.4783 137.924 74.7358 137.832 74.4783C137.269 74.2133 137.228 74.9091 137.096 75.2158C137.096 75.39 136.797 75.2158 136.881 75.4724C137.535 75.5558 138.231 75.0833 138.744 75.4317C138.959 75.2575 138.702 74.7775 139.133 74.7775C139.398 74.8266 139.224 75.125 139.398 75.2583C138.959 75.515 139.133 75.9949 138.794 76.2516C138.744 76.2516 138.703 76.0775 138.62 76.0775V76.2516C138.661 76.3424 138.703 76.5583 138.876 76.5167C139.009 75.995 139.829 76.0367 139.572 75.2992C140.003 75.1667 140.649 74.91 141.038 75.2992C141.345 75.8208 140.823 76.0775 140.823 76.5583C140.699 77.2541 139.788 76.9892 139.573 77.2958C139.927 77.5573 140.345 77.7201 140.782 77.7675C141.171 77.7675 142.166 78.0742 141.991 77.2958C142.082 76.5583 142.687 76.7741 143.209 76.6416C143.341 76.3433 143.689 75.8133 143.341 75.5583C143.598 74.78 142.124 74.4316 143.076 73.7033C142.82 73.6125 142.952 73.3058 142.902 73.1316H142.819C142.339 72.055 141.345 72.8333 140.819 71.79C140.736 71.2683 141.515 71.5333 141.473 71.4508C141.349 71.3426 141.196 71.2738 141.032 71.2532C140.869 71.2326 140.703 71.261 140.556 71.335L140.566 71.3983ZM115.141 70.9258C114.569 72.874 114.538 74.9411 115.051 76.9058C115.44 79.39 117.784 81.1041 118.993 83.1416L118.951 82.835C118.736 78.9841 121.03 75.7375 120.724 72.0691C120.293 73.8 118.778 75.1417 118.347 76.8725C117.915 78.1904 117.869 79.6043 118.215 80.9475H118.131C117.798 80.1538 117.578 79.3173 117.477 78.4625C116.947 75.7958 115.001 73.7175 115.175 70.86L115.141 70.9258ZM167.506 70.5366C167.721 74.255 164.956 76.7316 164.865 80.2866L164.608 80.6341L164.517 80.5433C165.95 77.1641 163.093 74.655 162.033 71.8391L162.29 74.655C162.596 77.4208 164.418 79.765 163.896 82.7541L166.844 78.8517C167.527 77.5729 167.937 76.1666 168.05 74.7214C168.162 73.2761 167.975 71.8232 167.498 70.4541L167.506 70.5366ZM136.666 69.8408C137.032 69.9098 137.374 70.0723 137.66 70.3125C137.618 70.445 137.361 70.6191 137.618 70.7516C137.875 70.8841 137.833 70.6191 137.966 70.5366C138.272 71.0083 138.62 70.4041 138.96 70.8349C139.788 70.9258 139.399 69.8825 140.003 69.6258V69.7091C139.92 69.7508 140.003 69.8825 140.003 69.9741C140.351 70.0575 140.649 69.7091 140.831 69.9741C140.705 69.2891 140.663 68.591 140.707 67.8958C139.174 68.01 137.734 68.6782 136.657 69.7758L136.666 69.8408ZM141.776 67.8033L141.908 69.8408C142.645 70.4449 143.035 69.5341 143.639 69.3191L143.813 69.4933C143.946 70.4041 142.985 70.7108 142.513 71.1491C143.076 70.495 143.466 71.845 144.12 71.365C144.252 70.5858 145.379 70.7183 145.503 69.8908C145.379 70.0233 145.205 69.8908 145.114 69.8075L145.677 69.2858C144.494 68.5071 143.163 67.98 141.768 67.7375L141.776 67.8033ZM133.544 67.4966C131.967 69.4023 131.015 71.7476 130.819 74.2133L131.986 74.13C131.851 73.8144 131.821 73.4636 131.902 73.13C132.291 72.6166 132.333 71.5317 133.286 71.6142C133.327 70.9267 134.196 71.0508 134.503 70.3642C135.108 70.3642 135.149 69.6275 135.753 69.5358L133.544 67.4966ZM149.056 67.4133L146.571 70.0133C146.348 70.1875 146.306 70.535 146.571 70.6183C146.571 69.9225 147.35 69.6658 147.913 69.84C148.272 69.8228 148.628 69.9068 148.942 70.0824C149.255 70.2581 149.513 70.5183 149.686 70.8333C149.638 70.9184 149.609 71.013 149.602 71.1103C149.595 71.2077 149.609 71.3054 149.644 71.3966C149.909 71.4875 150.033 71.2233 150.207 71.0983C150.729 71.0075 150.903 71.5708 151.251 71.835C151.102 71.9594 150.988 72.1201 150.92 72.3014C150.852 72.4827 150.832 72.6785 150.861 72.87H150.986C151.416 72.8283 151.549 72.3066 151.681 71.9175C151.611 71.4634 151.427 71.0346 151.146 70.6711C150.865 70.3076 150.496 70.0214 150.075 69.8392L150.207 69.5741C150.563 68.6049 149.478 68.0425 149.048 67.3466L149.056 67.4133ZM130.911 64.705C128.695 67.3663 127.364 70.6514 127.101 74.1041C128.101 74.1875 129.055 73.8891 129.958 74.1458L129.875 73.7983C130.04 71.1712 131.128 68.687 132.947 66.7841L130.911 64.705ZM141.785 64.0091C141.883 64.9443 141.913 65.8854 141.876 66.825C143.571 66.8537 145.194 67.5188 146.422 68.6883L148.501 66.6883C146.58 65.1341 144.232 64.1986 141.768 64.005L141.785 64.0091ZM140.791 63.9675C138.385 64.2323 136.118 65.2298 134.298 66.825L136.369 68.6883C136.947 68.1021 137.636 67.6359 138.395 67.3162C139.153 66.9964 139.968 66.8295 140.791 66.825C140.703 65.8748 140.697 64.9187 140.775 63.9675H140.791ZM117.726 63.8266L116.691 65.4833C114.786 68.7958 116.65 72.7216 117.686 75.8433C118.514 72.5308 121.893 70.295 122.232 66.8241C120.982 68.4808 118.92 69.6899 118.207 71.5533C117.86 72.1166 118.075 72.9775 117.644 73.4166C117.602 72.5058 117.727 71.5 117.727 70.51C117.658 68.3425 116.946 65.9575 117.725 63.8291L117.726 63.8266ZM164.684 63.305C166.026 66.3883 164.295 69.765 165.164 73.0108C165.122 73.0108 165.073 73.1433 164.99 73.1016C165.031 70.195 161.959 68.6375 160.311 66.4766C160.658 70.0791 164.51 72.2741 165.164 75.7108C165.352 74.3455 165.746 73.0164 166.331 71.7683C166.79 70.3341 166.88 68.807 166.592 67.3288C166.303 65.8506 165.647 64.4692 164.682 63.3125L164.684 63.305ZM128.245 61.9633C125.191 65.2666 123.427 69.5581 123.276 74.0541H126.133C126.228 70.3219 127.703 66.7573 130.274 64.05C129.55 63.4103 128.877 62.7154 128.261 61.9716L128.245 61.9633ZM154.316 61.9633C153.712 62.7659 152.998 63.4796 152.196 64.0833C153.177 65.0083 154.05 66.0428 154.796 67.1666C155.706 69.3783 156.659 71.5833 156.568 74.1399C157.479 73.9249 158.522 74.14 159.475 73.9658C159.303 69.4575 157.472 65.1717 154.331 61.9325L154.316 61.9633ZM149.86 60.3566C150.05 60.7069 150.338 60.9947 150.688 61.185C150.73 61.135 150.821 61.0942 150.821 61.0108C150.911 60.4558 150.266 60.3233 149.876 60.3233L149.86 60.3566ZM140.75 60.3566C137.383 60.5495 134.177 61.861 131.64 64.0833L133.64 66.1208C135.57 64.2688 138.114 63.1903 140.787 63.09L140.75 60.3566ZM141.744 60.2325C141.924 61.1603 141.954 62.1108 141.835 63.0483C144.057 63.1626 146.203 63.897 148.03 65.1683L147.591 64.605C147.98 64.2575 147.201 64.0008 147.507 63.6941C147.804 63.9926 148.081 64.3108 148.336 64.6466C148.601 64.5225 148.816 64.8625 149.031 64.9941C149.206 66.2941 150.198 66.9941 150.688 68.1608C150.805 68.1824 150.926 68.174 151.039 68.1363C151.152 68.0985 151.253 68.0327 151.334 67.945C151.814 68.1191 151.292 68.4175 151.384 68.6825L151.682 68.6408C152.071 68.8974 151.335 68.98 151.599 69.2458C152.551 69.5933 152.03 70.6291 152.245 71.4958C151.897 72.1416 151.773 73.1525 150.903 73.3183C150.861 73.575 151.118 74.2708 150.514 74.0966L151.988 74.0058C151.425 73.3183 152.162 72.4491 152.377 71.7558C152.468 71.6725 152.592 71.4167 152.725 71.5817C152.294 72.5342 153.114 73.0975 152.899 74.0658L155.624 73.9749C155.484 72.2333 155.076 70.5238 154.415 68.9066C153.504 69.3875 153.421 68.1283 152.858 67.74C152.296 67.3516 151.334 67.2183 151.119 66.44C149.777 66.5233 150.515 65.0075 149.736 64.4942C149.388 64.4033 149.131 64.6183 148.866 64.7508C148.741 64.2708 148.261 63.8816 148.567 63.3183C147.739 62.9291 148.352 62.0683 147.441 61.6616C145.613 60.9133 143.689 60.4228 141.726 60.2041L141.744 60.2325ZM121.801 60.0658C121.099 60.3482 120.475 60.7939 119.98 61.3658C117.73 63.4033 118.638 66.8233 118.556 69.5066C120.328 66.7816 124.27 65.3658 124.659 61.8874C123.706 63.5441 121.843 64.2641 120.518 65.6141C120.031 66.2486 119.583 66.9123 119.176 67.6017H119.086C120.201 65.1375 119.811 62.1067 121.799 60.0692L121.801 60.0658ZM160.726 59.7591L161.678 60.9766C162.415 63.0558 162.805 65.2667 163.5 67.2133H163.409C162.506 64.5717 159.426 63.9008 157.951 61.7133C158.258 65.2658 162.456 66.3508 164.146 69.1666C163.972 67.3858 164.494 65.4816 164.105 63.7008C163.896 62.8221 163.481 62.006 162.892 61.3208C162.304 60.6357 161.56 60.1013 160.723 59.7625L160.726 59.7591ZM143.897 58.0283C143.376 58.3065 142.818 58.5101 142.241 58.6333C142.332 58.7685 142.455 58.8787 142.6 58.954C142.745 59.0292 142.906 59.0671 143.069 59.0641C143.806 58.6333 144.85 59.2875 145.371 58.5008C145.175 58.3188 144.942 58.1822 144.687 58.1007C144.432 58.0192 144.162 57.9948 143.897 58.0292V58.0283ZM126.829 57.5483L125.355 58.1608C122.871 59.0633 121.281 61.6608 120.932 64.0899C123.533 62.5741 124.791 59.6841 126.829 57.5066V57.5483ZM155.417 57.2916L156.411 58.2858C157.827 60.4224 159.583 62.3125 161.61 63.8808L161.046 62.0174C160.351 59.5499 157.709 57.8191 155.415 57.2558L155.417 57.2916ZM128.825 61.4325L130.986 63.47C133.617 60.9297 137.083 59.4365 140.736 59.2708C140.604 58.3508 140.604 57.4166 140.736 56.4966C136.304 56.6408 132.073 58.3853 128.827 61.4075L128.825 61.4325ZM141.769 56.3725C141.845 57.1983 141.861 58.0285 141.819 58.8566L141.902 58.7658C141.986 58.6416 142.076 58.7658 142.117 58.8158C142.208 59.0308 142.25 59.1141 142.117 59.2874C144.332 59.2987 146.501 59.9114 148.395 61.06C148.599 60.9132 148.836 60.8172 149.085 60.7799C149.334 60.7425 149.588 60.7648 149.827 60.845C150.768 61.3894 151.522 62.2065 151.989 63.1883C152.43 62.4266 153.039 61.7754 153.77 61.2841C150.481 58.2722 146.226 56.5311 141.77 56.3733L141.769 56.3725ZM157.711 64.9558C161.223 70.3308 161.264 78.9558 157.67 84.2891C155.851 87.3449 153.209 89.827 150.045 91.4512C146.881 93.0754 143.325 93.7761 139.781 93.4733C133.065 93.2083 126.655 88.4466 123.922 82.2516C121.115 76.2516 122.15 67.9741 126.266 63.0016C128.669 59.8268 132.013 57.491 135.821 56.3268C139.629 55.1626 143.707 55.2293 147.475 56.5175C151.778 58.034 155.404 61.0267 157.709 64.9641L157.711 64.9558Z" fill="#2B2B2B"/>
<path id="Path 49" d="M170.182 108.475L170.795 108.416C170.813 108.63 170.881 108.837 170.994 109.02C171.121 109.192 171.295 109.324 171.494 109.401C171.729 109.5 171.983 109.548 172.239 109.542C172.462 109.548 172.684 109.511 172.893 109.435C173.059 109.378 173.206 109.274 173.315 109.136C173.406 109.014 173.455 108.866 173.456 108.714C173.459 108.57 173.413 108.429 173.324 108.316C173.206 108.182 173.054 108.082 172.885 108.026C172.752 107.976 172.462 107.894 172.015 107.786C171.688 107.724 171.371 107.621 171.07 107.48C170.856 107.378 170.673 107.221 170.54 107.025C170.43 106.842 170.373 106.633 170.374 106.42C170.372 106.172 170.444 105.93 170.58 105.724C170.732 105.504 170.945 105.334 171.193 105.235C171.79 105.009 172.45 105.009 173.048 105.235C173.31 105.337 173.535 105.516 173.694 105.749C173.836 105.982 173.918 106.246 173.934 106.519L173.313 106.569C173.306 106.435 173.272 106.304 173.214 106.183C173.155 106.062 173.074 105.954 172.974 105.865C172.731 105.699 172.439 105.617 172.145 105.633C171.854 105.618 171.564 105.693 171.317 105.848C171.236 105.907 171.17 105.984 171.124 106.073C171.078 106.162 171.053 106.261 171.052 106.361C171.05 106.444 171.066 106.526 171.099 106.602C171.132 106.678 171.181 106.745 171.243 106.8C171.541 106.984 171.874 107.102 172.22 107.148C172.59 107.22 172.953 107.325 173.304 107.463C173.555 107.569 173.773 107.742 173.933 107.963C174.068 108.17 174.137 108.412 174.132 108.659C174.131 108.921 174.053 109.177 173.909 109.396C173.748 109.63 173.528 109.816 173.271 109.935C172.973 110.064 172.652 110.129 172.327 110.125C171.947 110.137 171.569 110.069 171.217 109.926C170.928 109.809 170.682 109.605 170.513 109.343C170.341 109.082 170.246 108.777 170.24 108.465M165.073 110.038V105.155H165.735L168.303 108.998V105.155H168.924V110.05H168.179L165.611 106.207V110.05L165.073 110.038ZM159.649 107.661C159.62 108.169 159.789 108.668 160.12 109.053C160.275 109.216 160.461 109.345 160.668 109.434C160.874 109.523 161.097 109.568 161.321 109.568C161.546 109.568 161.768 109.523 161.975 109.434C162.181 109.345 162.367 109.216 162.522 109.053C162.859 108.645 163.028 108.124 162.995 107.595C163 107.237 162.929 106.882 162.788 106.552C162.665 106.267 162.46 106.025 162.2 105.856C161.886 105.665 161.518 105.585 161.154 105.626C160.789 105.668 160.449 105.831 160.187 106.088C159.983 106.296 159.825 106.544 159.722 106.817C159.619 107.089 159.574 107.38 159.59 107.671L159.649 107.661ZM158.978 107.661C158.939 106.965 159.173 106.281 159.632 105.756C159.845 105.533 160.103 105.356 160.388 105.238C160.673 105.119 160.98 105.062 161.289 105.069C161.719 105.063 162.143 105.174 162.515 105.391C162.873 105.605 163.161 105.918 163.343 106.294C163.534 106.708 163.633 107.159 163.633 107.615C163.633 108.071 163.534 108.521 163.343 108.935C163.165 109.309 162.876 109.619 162.515 109.821C162.152 110.021 161.745 110.126 161.33 110.128C160.895 110.134 160.467 110.016 160.096 109.789C159.735 109.575 159.447 109.257 159.268 108.878C159.06 108.504 158.941 108.088 158.92 107.66L158.978 107.661ZM157.007 110.046V105.155H157.653V110.05L157.007 110.046ZM153.247 110.046V105.731H151.615V105.148H155.5V105.731H153.843V110.046H153.247ZM147.798 108.034H149.455L148.941 106.684C148.781 106.269 148.665 105.93 148.594 105.665C148.533 105.984 148.445 106.297 148.329 106.6L147.798 108.034ZM146.39 110.046L148.27 105.152H148.966L150.966 110.046H150.23L149.658 108.564H147.555L147.016 110.046H146.39ZM141.264 110.046V105.155H141.93L144.498 108.998V105.155H145.119V110.05H144.452L141.882 106.205V110.048L141.264 110.046ZM133.636 109.463H134.688C134.941 109.469 135.194 109.439 135.438 109.372C135.604 109.326 135.755 109.238 135.877 109.115C136.045 108.944 136.167 108.734 136.233 108.503C136.329 108.198 136.374 107.879 136.365 107.559C136.388 107.149 136.301 106.74 136.115 106.375C135.977 106.13 135.762 105.938 135.503 105.828C135.234 105.75 134.954 105.716 134.675 105.729H133.64L133.636 109.463ZM132.99 110.046V105.155H134.647C134.925 105.15 135.203 105.175 135.475 105.23C135.742 105.28 135.991 105.4 136.196 105.577C136.456 105.798 136.654 106.084 136.768 106.405C136.907 106.776 136.974 107.169 136.967 107.565C136.97 107.898 136.925 108.23 136.835 108.55C136.762 108.804 136.649 109.044 136.501 109.262C136.26 109.62 135.889 109.87 135.466 109.958C135.208 110.014 134.944 110.042 134.68 110.041L132.99 110.046ZM127.525 110.046V105.155H131.06V105.738H128.17V107.238H130.87V107.81H128.17V109.466H131.17V110.05L127.525 110.046ZM123.858 110.046V105.731H122.251V105.148H126.127V105.731H124.465V110.046H123.858ZM120.108 110.046V105.155H120.754V110.05L120.108 110.046ZM114.31 110.046V105.155H114.981L117.549 108.998V105.155H118.17V110.05H117.503L114.927 106.207V110.05L114.31 110.046ZM111.867 105.151H112.513V107.975C112.526 108.374 112.469 108.772 112.346 109.151C112.227 109.446 112.015 109.693 111.742 109.855C111.395 110.052 110.999 110.147 110.6 110.129C110.213 110.143 109.828 110.061 109.481 109.889C109.196 109.742 108.973 109.498 108.852 109.201C108.713 108.808 108.652 108.392 108.67 107.975V105.155H109.382V107.979C109.369 108.295 109.408 108.611 109.498 108.915C109.574 109.113 109.718 109.277 109.904 109.379C110.177 109.514 110.483 109.57 110.787 109.543C111.091 109.515 111.381 109.404 111.626 109.221C111.874 108.857 111.983 108.416 111.933 107.979L111.867 105.151Z" fill="#2B2B2B"/>
</g>
</g>
<defs>
<filter id="filter0_d_533_36393" x="0" y="0" width="282.333" height="174" filterUnits="userSpaceOnUse" color-interpolation-filters="sRGB">
<feFlood flood-opacity="0" result="BackgroundImageFix"/>
<feColorMatrix in="SourceAlpha" type="matrix" values="0 0 0 0 0 0 0 0 0 0 0 0 0 0 0 0 0 0 127 0" result="hardAlpha"/>
<feMorphology radius="1" operator="dilate" in="SourceAlpha" result="effect1_dropShadow_533_36393"/>
<feOffset dy="4"/>
<feGaussianBlur stdDeviation="18"/>
<feComposite in2="hardAlpha" operator="out"/>
<feColorMatrix type="matrix" values="0 0 0 0 0.87451 0 0 0 0 0.803922 0 0 0 0 0.94902 0 0 0 0.3 0"/>
<feBlend mode="normal" in2="BackgroundImageFix" result="effect1_dropShadow_533_36393"/>
<feBlend mode="normal" in="SourceGraphic" in2="effect1_dropShadow_533_36393" result="shape"/>
</filter>
</defs>
</svg>
