<svg width="114" height="88" viewBox="0 0 114 88" fill="none" xmlns="http://www.w3.org/2000/svg">
<path id="Ellipse 31" d="M32.5676 5.88617C23.0054 -2.47562 7.91613 -1.47816 3.88731 10.5686C3.38225 12.0787 2.93847 13.6121 2.5578 15.1651C0.342196 24.204 0.329876 33.6429 2.52188 42.6875C4.71389 51.7322 9.0461 60.1182 15.1541 67.1399C21.262 74.1616 28.967 79.6136 37.6209 83.0373C46.2748 86.461 55.6243 87.7563 64.883 86.814C74.1417 85.8718 83.0387 82.7197 90.8255 77.6229C98.6123 72.5262 105.061 65.6337 109.629 57.5256C110.414 56.1325 111.14 54.7106 111.804 53.2636C117.108 41.7213 106.786 30.6702 94.0908 30.2265L67.177 29.2858C61.8878 29.1009 56.8241 27.0976 52.84 23.6137L32.5676 5.88617Z" fill="#ECDAFF"/>
</svg>
