<svg width="194" height="122" viewBox="0 0 194 122" fill="none" xmlns="http://www.w3.org/2000/svg">
<path id="Vector" d="M192.158 79.6314C191.614 76.3689 191.07 72.0189 188.895 69.8439C187.808 68.7564 182.914 67.6689 182.914 67.6689L179.108 57.3377C169.864 33.9564 154.095 17.6439 132.345 7.31265C120.927 2.4189 109.508 -0.299845 98.0891 0.243905H95.9141C84.4953 0.243905 73.0766 2.4189 61.6578 7.31265C39.3641 17.1002 24.1391 33.9564 14.8953 57.3377L11.0891 67.6689C11.0891 68.2127 5.65156 68.7564 5.10781 69.8439C2.93281 72.5627 2.93281 76.9127 1.84531 79.6314C0.757811 83.9814 0.757812 88.8752 0.757812 93.2252C1.30156 98.6627 2.38906 104.644 4.02031 110.081C5.65156 113.888 7.82656 122.044 13.2641 121.5C15.9828 120.956 21.9641 120.413 25.2266 120.413H26.8578C28.4891 120.413 30.1203 118.781 30.1203 116.606C29.5766 112.8 29.5766 109.538 29.0328 105.731C27.9453 97.5752 27.4016 89.9627 26.3141 81.8064C25.7703 77.4564 24.1391 72.5627 25.7703 67.6689C36.1016 33.9564 65.4641 12.7502 97.0016 14.3814C128.539 12.7502 157.902 33.9564 168.777 67.1252C170.408 71.4752 168.777 76.3689 168.233 81.2627C167.145 89.4189 166.602 97.0314 165.514 105.188C164.97 108.994 164.97 112.256 164.427 116.063C164.427 117.694 165.514 119.869 167.689 119.869H169.32C172.039 120.413 178.02 120.956 181.283 120.956C186.72 121.5 188.895 113.888 190.527 109.538C192.158 104.1 193.245 98.6627 193.789 92.6814C193.245 88.3314 193.245 83.9814 192.158 79.6314Z" fill="white" fill-opacity="0.1"/>
</svg>
