<svg width="77" height="17" viewBox="0 0 77 17" fill="none" xmlns="http://www.w3.org/2000/svg">
<g id="&#240;&#159;&#166;&#134; icon &#34;Amazon&#34;">
<g id="Group">
<g id="Group_2">
<path id="Vector" fill-rule="evenodd" clip-rule="evenodd" d="M38.8672 16.4966C27.1528 16.4228 16.6359 13.5324 7.13224 7.44143C5.19773 6.20257 3.35532 4.84575 1.60513 3.3563C1.45164 3.22355 1.29802 3.09091 1.17523 2.92854C1.00632 2.70732 0.883528 2.44193 1.08313 2.17642C1.28273 1.88141 1.62054 1.85193 1.91224 1.98468C2.58773 2.29437 3.23265 2.63354 3.89273 2.95803C9.94197 6.02552 16.3135 8.23773 22.9921 9.63872C29.0412 10.9071 35.1517 11.4971 41.3544 11.3347C50.2133 11.0988 58.7496 9.38801 66.9635 6.21713C67.3627 6.055 67.7773 5.89276 68.1918 5.80417C68.7753 5.7009 69.3587 5.77468 69.6197 6.37937C69.8653 6.93977 69.5429 7.38221 69.113 7.73619C68.8059 7.98678 68.4528 8.19331 68.0997 8.41453C62.8029 11.718 56.9994 13.8417 50.8582 15.1543C46.8048 16.0395 42.6902 16.467 38.8672 16.4966Z" fill="#F6A61F"/>
<path id="Vector_2" fill-rule="evenodd" clip-rule="evenodd" d="M68.4216 3.35566C66.656 3.34085 64.9058 3.56207 63.1555 3.739C62.8177 3.76849 62.4339 3.85695 62.2804 3.5031C62.0962 3.10483 62.4493 2.86892 62.741 2.67719C64.9212 1.29101 67.3623 0.745296 69.9263 0.612539C71.6919 0.509393 73.4421 0.583174 75.1617 1.08447C75.9447 1.30569 76.3285 1.74813 76.3132 2.51506C76.2212 6.61488 74.7932 10.1839 71.7073 13.0893C71.5998 13.1925 71.477 13.281 71.3543 13.3695C71.078 13.5613 70.7402 13.7381 70.4483 13.5022C70.1721 13.281 70.3255 12.9565 70.4483 12.6911C71.3543 10.5232 72.2755 8.37009 72.7205 6.05461C72.782 5.7596 72.7973 5.46473 72.8127 5.18441C72.828 4.22574 72.4749 3.81291 71.4923 3.577C70.4636 3.31137 69.4349 3.35566 68.4216 3.35566Z" fill="#F6A61F"/>
</g>
</g>
</g>
</svg>
