<svg width="132" height="132" viewBox="0 0 132 132" fill="none" xmlns="http://www.w3.org/2000/svg">
<g id="Group 25">
<rect id="Rectangle 21" x="0.379883" y="0.772461" width="131.1" height="130.725" rx="31" fill="white"/>
<g id="&#240;&#159;&#166;&#134; icon &#34;google&#34;">
<path id="Vector" d="M106.853 69.2373L109.234 70.7189C108.461 71.7813 106.613 73.604 103.418 73.604C99.4508 73.604 96.4961 70.7384 96.4961 67.093C96.4961 63.2137 99.4821 60.582 103.084 60.582C106.707 60.582 108.482 63.2722 109.056 64.7245L109.369 65.4653L100.035 69.0716C100.745 70.3777 101.852 71.0405 103.418 71.0405C104.984 71.0405 106.07 70.3192 106.853 69.2373ZM99.5343 66.8883L105.767 64.4711C105.423 63.6621 104.4 63.087 103.178 63.087C101.622 63.087 99.4612 64.3736 99.5343 66.8883Z" fill="#FF302F"/>
<path id="Vector_2" d="M91.9961 53.9434H95.003V73.0084H91.9961V53.9434Z" fill="#20B15A"/>
<path id="Vector_3" d="M87.2559 61.0889H90.1583V72.6682C90.1583 77.4735 87.1201 79.4521 83.5286 79.4521C80.1458 79.4521 78.1099 77.3273 77.3478 75.6021L80.0101 74.5689C80.4904 75.6313 81.6493 76.8887 83.5286 76.8887C85.8359 76.8887 87.2559 75.5533 87.2559 73.0581V72.1224H87.1515C86.4624 72.9022 85.1469 73.6039 83.4764 73.6039C79.9892 73.6039 76.7944 70.7676 76.7944 67.1125C76.7944 63.4379 79.9892 60.5723 83.4764 60.5723C85.1364 60.5723 86.4624 61.2643 87.1515 62.0246H87.2559V61.0889ZM87.4647 67.1125C87.4647 64.8122 85.8255 63.1357 83.7374 63.1357C81.6284 63.1357 79.8535 64.8122 79.8535 67.1125C79.8535 69.3835 81.6284 71.0307 83.7374 71.0307C85.8255 71.0405 87.4647 69.3835 87.4647 67.1125Z" fill="#3686F7"/>
<path id="Vector_4" d="M60.2879 67.0637C60.2879 70.8163 57.1558 73.5746 53.3136 73.5746C49.4715 73.5746 46.3394 70.8065 46.3394 67.0637C46.3394 63.2916 49.4715 60.543 53.3136 60.543C57.1558 60.543 60.2879 63.2916 60.2879 67.0637ZM57.2393 67.0637C57.2393 64.7244 55.4226 63.1162 53.3136 63.1162C51.2047 63.1162 49.388 64.7244 49.388 67.0637C49.388 69.3835 51.2047 71.0112 53.3136 71.0112C55.4226 71.0112 57.2393 69.3835 57.2393 67.0637Z" fill="#FF302F"/>
<path id="Vector_5" d="M75.5213 67.093C75.5213 70.8456 72.3892 73.604 68.547 73.604C64.7049 73.604 61.5728 70.8456 61.5728 67.093C61.5728 63.3209 64.7049 60.582 68.547 60.582C72.3892 60.582 75.5213 63.3112 75.5213 67.093ZM72.4622 67.093C72.4622 64.7537 70.6456 63.1455 68.5366 63.1455C66.4276 63.1455 64.611 64.7537 64.611 67.093C64.611 69.4128 66.4276 71.0405 68.5366 71.0405C70.656 71.0405 72.4622 69.403 72.4622 67.093Z" fill="#FFBA40"/>
<path id="Vector_6" d="M34.876 70.7477C30.5014 70.7477 27.0769 67.4532 27.0769 63.3692C27.0769 59.2852 30.5014 55.9908 34.876 55.9908C37.2356 55.9908 38.9582 56.8582 40.232 57.9694L42.3305 56.0103C40.5556 54.4215 38.1856 53.2129 34.876 53.2129C28.8831 53.2129 23.8403 57.7745 23.8403 63.3692C23.8403 68.964 28.8831 73.5255 34.876 73.5255C38.1126 73.5255 40.5556 72.5313 42.4663 70.6794C44.4291 68.847 45.0346 66.2738 45.0346 64.188C45.0346 63.5349 44.9511 62.8624 44.8572 62.3653H34.876V65.0749H41.986C41.7772 66.7709 41.203 67.9308 40.3573 68.7203C39.3341 69.6852 37.7158 70.7477 34.876 70.7477Z" fill="#3686F7"/>
</g>
</g>
</svg>
