<svg width="132" height="132" viewBox="0 0 132 132" fill="none" xmlns="http://www.w3.org/2000/svg">
<g id="Group 28">
<rect id="Rectangle 24" x="0.379883" y="0.672852" width="131.1" height="130.725" rx="31" fill="white"/>
<g id="&#240;&#159;&#166;&#134; icon &#34;twitter logo&#34;">
<path id="Vector" d="M45.5056 50.8469C50.9205 57.0459 59.0051 61.1265 68.1312 61.5555C67.9473 60.8032 67.8484 60.0244 67.8484 59.2237C67.8484 53.5615 72.7637 48.9727 78.8241 48.9727C85.4629 48.9727 89.8376 54.6398 89.8376 60.4116C89.8376 73.9535 78.7982 89.5678 58.6045 89.5678C52.4073 89.5678 46.639 87.8739 41.7803 84.9637" stroke="#06C69A" stroke-width="6.70583" stroke-linecap="round" stroke-linejoin="round"/>
<path id="Vector_2" d="M45.1261 50.7256C44.0689 52.3165 44.0206 54.1239 44.0206 55.9981C44.0206 59.553 45.9598 62.6921 48.9029 64.5289C47.1027 64.4739 45.4108 64.0142 43.931 63.2464V63.3784C43.931 68.3433 47.7129 72.4856 52.7366 73.4271C51.813 73.6602 50.8445 73.7834 49.8454 73.7834C49.1386 73.7834 48.4481 73.7218 47.7789 73.6031C49.1762 77.6727 53.2291 80.638 58.0337 80.7172C53.4602 84.0632 47.5746 85.2253 41.8125 84.5918" stroke="#06C69A" stroke-width="6.03525" stroke-linecap="round" stroke-linejoin="round"/>
<path id="Vector_3" d="M90.6772 54.8254C92.8991 54.5768 95.0127 54.0269 96.9804 53.2129L96.9758 53.2195C95.5078 55.2719 93.6462 57.0736 91.5021 58.521L88.5327 51.6401C91.0328 51.1825 93.3821 50.329 95.5028 49.1543C94.683 51.5477 92.9438 53.5583 90.6772 54.8254Z" fill="#06C69A"/>
</g>
</g>
</svg>
