<svg width="60" height="60" viewBox="0 0 60 60" fill="none" xmlns="http://www.w3.org/2000/svg">
<g id="Group">
<path id="Vector" fill-rule="evenodd" clip-rule="evenodd" d="M4.92654 29.3554C4.92654 43.3124 16.354 54.6258 30.4491 54.6258C44.5454 54.6258 55.9717 43.3113 55.9717 29.3554C55.9717 15.3984 44.5442 4.08496 30.4491 4.08496C16.3528 4.08496 4.92654 15.3995 4.92654 29.3554Z" fill="#449FB9"/>
<path id="Vector_2" fill-rule="evenodd" clip-rule="evenodd" d="M22.2875 14.8008C22.3158 14.8018 22.3439 14.8054 22.3714 14.8116C23.5554 15.1057 25.0705 15.7745 26.0696 16.2186C26.2109 16.1956 26.3382 16.2259 26.4595 16.2511C26.6587 16.2924 26.8789 16.3646 27.1373 16.4675C27.6539 16.6734 28.3211 16.9996 29.1158 17.4164C30.7052 18.2499 32.7946 19.454 35.0439 20.8C39.5425 23.4925 44.677 26.7476 47.6758 28.679C47.8637 28.8046 47.9281 29.049 47.8252 29.249C47.7896 29.3182 47.7369 29.374 47.6758 29.415C47.6436 29.4607 47.6042 29.5005 47.5592 29.5305C47.527 29.5762 47.4876 29.6159 47.4426 29.6459C47.4103 29.6917 47.3713 29.7313 47.326 29.7614C47.2955 29.8045 47.2589 29.8404 47.2166 29.8696C47.1839 29.9181 47.1434 29.9573 47.0964 29.9887C47.0644 30.0341 47.0246 30.0741 46.9798 30.1041C46.9477 30.1498 46.9083 30.1895 46.8632 30.2196C46.8311 30.2653 46.7917 30.305 46.7467 30.335C46.7144 30.3808 46.6753 30.4204 46.6301 30.4504C46.5995 30.4936 46.5629 30.5295 46.5207 30.5587C46.4889 30.6057 46.4493 30.6431 46.4041 30.6742C46.3715 30.7222 46.3305 30.762 46.2839 30.7932C46.2517 30.8389 46.2123 30.8786 46.1673 30.9086C46.1351 30.9543 46.0957 30.9941 46.0507 31.0241C46.0184 31.0699 45.9793 31.1095 45.9341 31.1395C45.9036 31.1829 45.8672 31.2184 45.8247 31.2478C45.792 31.2963 45.7515 31.3354 45.7045 31.3668C45.6721 31.4136 45.6336 31.4517 45.5879 31.4823C45.5559 31.5277 45.5161 31.5677 45.4713 31.5977C45.4392 31.6434 45.3998 31.6831 45.3547 31.7131C45.3224 31.759 45.2834 31.7986 45.2382 31.8286C45.2076 31.872 45.1712 31.9074 45.1288 31.9369C45.0974 31.9833 45.0567 32.0215 45.0122 32.0523C44.9794 32.1008 44.939 32.1399 44.892 32.1713C44.8599 32.2168 44.8202 32.2568 44.7754 32.2868C44.7432 32.3325 44.7038 32.3722 44.6588 32.4022C44.6266 32.4479 44.5872 32.4877 44.5422 32.5177C44.5099 32.5635 44.4708 32.603 44.4256 32.6331C44.3951 32.6763 44.3584 32.7122 44.3162 32.7414C44.2844 32.7884 44.2449 32.8258 44.1996 32.8568C44.167 32.9049 44.1261 32.9447 44.0794 32.9759C44.0473 33.0216 44.0078 33.0613 43.9628 33.0913C43.9307 33.137 43.8912 33.1767 43.8462 33.2067C43.8139 33.2526 43.7749 33.2921 43.7296 33.3222C43.6991 33.3656 43.6627 33.401 43.6203 33.4305C43.5885 33.4775 43.5489 33.5149 43.5037 33.5459C43.471 33.5939 43.4301 33.6338 43.3835 33.6649C43.3514 33.7104 43.3117 33.7504 43.2669 33.7804C43.2347 33.8261 43.1953 33.8658 43.1503 33.8958C43.118 33.9417 43.0789 33.9811 43.0337 34.0113C43.0031 34.0547 42.9668 34.0901 42.9243 34.1196C42.8916 34.168 42.8511 34.2072 42.8041 34.2386C42.7717 34.2853 42.7332 34.3234 42.6875 34.354C42.6555 34.3995 42.6157 34.4394 42.5709 34.4695C42.5388 34.5152 42.4993 34.5549 42.4543 34.5849C42.422 34.6307 42.383 34.6702 42.3377 34.7003C42.3065 34.7448 42.2683 34.7825 42.2248 34.8122C42.1939 34.8569 42.155 34.8941 42.1118 34.9241C42.1071 34.931 42.1022 34.9392 42.0972 34.9458C43.0218 36.2819 43.9686 37.7222 44.8809 39.2495C44.9973 39.4446 44.9475 39.6943 44.7643 39.8302C44.7608 39.8328 44.757 39.8349 44.7534 39.8374C44.7257 39.8789 44.6898 39.9143 44.6477 39.9457C44.642 39.95 44.6354 39.9526 44.6295 39.9566C44.6027 39.9947 44.5705 40.032 44.5311 40.0612C44.5254 40.0654 44.5188 40.0681 44.5129 40.072C44.4861 40.1101 44.4539 40.1474 44.4145 40.1766C44.4094 40.1804 44.4051 40.1839 44.4 40.1875C44.373 40.2261 44.3377 40.2625 44.2979 40.292C44.2928 40.2959 44.2885 40.2993 44.2834 40.3029C44.2564 40.3416 44.2248 40.3744 44.185 40.4039C44.1806 40.407 44.1747 40.4082 44.1704 40.4112C44.1429 40.4518 44.1099 40.4885 44.0684 40.5195C44.0649 40.5221 44.061 40.5242 44.0574 40.5267C44.0298 40.5682 43.9939 40.6036 43.9518 40.635C43.9473 40.6383 43.9416 40.6392 43.9372 40.6423C43.9098 40.6828 43.8766 40.7198 43.8352 40.7506C43.8295 40.7549 43.8228 40.7575 43.817 40.7614C43.7902 40.7995 43.758 40.8368 43.7186 40.866C43.7134 40.8698 43.7091 40.8733 43.704 40.8769C43.6771 40.9156 43.6417 40.9519 43.602 40.9815C43.5968 40.9853 43.5925 40.9887 43.5874 40.9923C43.5605 41.031 43.5289 41.0674 43.489 41.0969C43.4819 41.1021 43.4744 41.1066 43.4671 41.1113C43.4407 41.1483 43.4106 41.1803 43.3723 41.2088C43.3688 41.2114 43.3649 41.2135 43.3613 41.216C43.3337 41.2575 43.2978 41.2929 43.2557 41.3243C43.2522 41.327 43.2483 41.3291 43.2447 41.3316C43.2171 41.3731 43.1812 41.4085 43.1391 41.4399C43.1334 41.4442 43.1267 41.4468 43.1209 41.4507C43.0941 41.4888 43.0619 41.5261 43.0225 41.5553C43.0168 41.5596 43.0101 41.5623 43.0043 41.5662C42.9775 41.6043 42.9453 41.6416 42.9059 41.6708C42.9008 41.6746 42.8965 41.6781 42.8913 41.6816C42.8644 41.7203 42.8328 41.7567 42.7929 41.7862C42.7858 41.7914 42.7784 41.7959 42.771 41.8007C42.7447 41.8376 42.7146 41.8696 42.6762 41.8981C42.6727 41.9007 42.6689 41.9028 42.6653 41.9054C42.6376 41.9468 42.6017 41.9822 42.5596 42.0136C42.5561 42.0163 42.5523 42.0184 42.5487 42.0209C42.521 42.0624 42.4851 42.0978 42.443 42.1292C42.4373 42.1335 42.4307 42.1361 42.4248 42.1401C42.398 42.1781 42.3658 42.2154 42.3264 42.2446C42.3207 42.2489 42.3141 42.2516 42.3082 42.2555C42.2814 42.2936 42.2492 42.3309 42.2098 42.3601C42.2047 42.3639 42.2004 42.3674 42.1953 42.3709C42.1683 42.4096 42.133 42.446 42.0932 42.4755C42.0881 42.4793 42.0838 42.4828 42.0787 42.4864C42.0517 42.5251 42.0201 42.5578 41.9803 42.5874C41.9759 42.5905 41.97 42.5917 41.9657 42.5947C41.9382 42.6353 41.9052 42.672 41.8637 42.703C41.8602 42.7056 41.8563 42.7077 41.8527 42.7102C41.8251 42.7517 41.7892 42.7871 41.7471 42.8185C41.7414 42.8228 41.7347 42.8254 41.7289 42.8294C41.7168 42.8467 41.7036 42.8642 41.6888 42.8799C41.771 43.0517 41.8545 43.2159 41.911 43.3128C42.0239 43.5104 41.9697 43.7612 41.7835 43.8935C41.7798 43.8962 41.7762 43.8982 41.7725 43.9008C41.7439 43.9415 41.7095 43.9786 41.6669 44.0091C41.6632 44.0117 41.6596 44.0138 41.6559 44.0163C41.6273 44.0571 41.5929 44.0906 41.5503 44.1209C41.5489 44.1219 41.548 44.1236 41.5466 44.1245C41.5176 44.1671 41.478 44.2049 41.4337 44.2364C41.4323 44.2373 41.4315 44.239 41.4301 44.24C41.401 44.2826 41.3614 44.3203 41.3171 44.3518C41.3157 44.3527 41.3149 44.3545 41.3135 44.3554C41.2844 44.398 41.2448 44.4358 41.2005 44.4673C41.1991 44.4682 41.1983 44.4699 41.1969 44.4708C41.1678 44.5134 41.1318 44.5512 41.0875 44.5827C41.0831 44.5858 41.0775 44.587 41.0729 44.59C41.0446 44.6299 41.013 44.6682 40.9709 44.6983C40.9673 44.7009 40.9637 44.703 40.9599 44.7055C40.9314 44.7463 40.897 44.7833 40.8543 44.8138C40.8512 44.8161 40.8466 44.8153 40.8433 44.8174C40.815 44.8576 40.7799 44.8956 40.7377 44.9257C40.7363 44.9266 40.7355 44.9283 40.7341 44.9293C40.7051 44.9719 40.6654 45.0096 40.6211 45.0411C40.6197 45.0421 40.6189 45.0438 40.6175 45.0447C40.5885 45.0873 40.5488 45.1251 40.5045 45.1566C40.5031 45.1575 40.5023 45.1592 40.5009 45.1602C40.4719 45.2028 40.4358 45.2405 40.3915 45.272C40.3879 45.2746 40.3843 45.2768 40.3806 45.2793C40.352 45.3202 40.3177 45.357 40.2749 45.3876C40.2713 45.3902 40.2677 45.3923 40.264 45.3948C40.2354 45.4356 40.201 45.4727 40.1584 45.5031C40.1538 45.5064 40.1484 45.5073 40.1438 45.5104C40.1158 45.5495 40.083 45.5857 40.0418 45.615C40.0404 45.6159 40.0395 45.6177 40.0381 45.6186C40.0091 45.6612 39.9695 45.6989 39.9252 45.7304C39.9238 45.7314 39.9229 45.7331 39.9216 45.734C39.8925 45.7766 39.8529 45.8144 39.8086 45.8459C39.8072 45.8468 39.8064 45.8485 39.805 45.8495C39.7759 45.8921 39.7399 45.9298 39.6956 45.9613C39.692 45.9639 39.6884 45.9661 39.6846 45.9686C39.6561 46.0095 39.6218 46.0463 39.579 46.0769C39.5754 46.0795 39.5718 46.0816 39.568 46.0842C39.5395 46.1249 39.5051 46.162 39.4624 46.1924C39.4588 46.1951 39.4552 46.1972 39.4514 46.1997C39.4229 46.2405 39.3885 46.2739 39.3458 46.3043C39.3444 46.3052 39.3436 46.307 39.3422 46.3079C39.3132 46.3505 39.2735 46.3882 39.2292 46.4198C39.2278 46.4207 39.227 46.4224 39.2256 46.4233C39.1966 46.4659 39.1569 46.5037 39.1126 46.5352C39.1112 46.5361 39.1104 46.5378 39.109 46.5388C39.08 46.5814 39.0403 46.6191 38.996 46.6506C38.9946 46.6516 38.9938 46.6533 38.9924 46.6542C38.9634 46.6968 38.9273 46.7346 38.883 46.7661C38.8786 46.7692 38.873 46.7703 38.8685 46.7733C38.8401 46.8133 38.8085 46.8516 38.7664 46.8816C38.7628 46.8843 38.7592 46.8864 38.7555 46.8889C38.7269 46.9297 38.6925 46.9631 38.6498 46.9935C38.6485 46.9944 38.6476 46.9962 38.6462 46.9971C38.6172 47.0397 38.5776 47.0774 38.5333 47.1089C38.5319 47.1099 38.531 47.1116 38.5296 47.1125C38.5006 47.1551 38.461 47.1929 38.4167 47.2244C38.4153 47.2253 38.4144 47.227 38.413 47.228C38.384 47.2706 38.3444 47.3083 38.3001 47.3398C38.2987 47.3408 38.2979 47.3425 38.2965 47.3434C38.2674 47.386 38.2314 47.4238 38.1871 47.4553C38.1827 47.4584 38.1771 47.4595 38.1725 47.4625C38.1442 47.5025 38.1126 47.5408 38.0705 47.5708C38.0669 47.5735 38.0633 47.5756 38.0595 47.5781C38.031 47.6189 37.9966 47.6559 37.9539 47.6864C37.9507 47.6887 37.9462 47.6879 37.9429 47.69C37.9146 47.7301 37.8795 47.7681 37.8373 47.7982C37.8359 47.7992 37.8351 47.8009 37.8337 47.8018C37.8047 47.8444 37.765 47.8822 37.7207 47.9137C37.7193 47.9146 37.7185 47.9163 37.7171 47.9173C37.6881 47.9599 37.6484 47.9976 37.6041 48.0291C37.6027 48.0301 37.6019 48.0318 37.6005 48.0327C37.5715 48.0753 37.5354 48.1131 37.4911 48.1446C37.4875 48.1471 37.4839 48.1493 37.4802 48.1519C37.4516 48.1927 37.4173 48.2295 37.3745 48.2601C37.3709 48.2628 37.3673 48.2649 37.3636 48.2674C37.335 48.3082 37.3006 48.3452 37.2579 48.3757C37.2543 48.3784 37.2507 48.3804 37.247 48.383C37.2184 48.4237 37.184 48.4572 37.1413 48.4876C37.14 48.4885 37.1391 48.4902 37.1377 48.4911C37.1087 48.5337 37.0691 48.5715 37.0248 48.603C37.0234 48.6039 37.0225 48.6057 37.0211 48.6066C36.9921 48.6492 36.9525 48.6869 36.9082 48.7184C36.9068 48.7194 36.9059 48.7211 36.9045 48.722C36.8755 48.7646 36.8395 48.8024 36.7952 48.8339H36.7916C36.7892 48.8355 36.7866 48.8358 36.7842 48.8375C36.7554 48.8793 36.7222 48.9183 36.6786 48.9493C36.675 48.952 36.6714 48.9541 36.6676 48.9566C36.6391 48.9974 36.6047 49.0344 36.562 49.0649C36.5584 49.0675 36.5548 49.0696 36.551 49.0722C36.5225 49.1129 36.4881 49.1464 36.4454 49.1768C36.444 49.1777 36.4432 49.1794 36.4418 49.1803C36.4127 49.2229 36.3731 49.2607 36.3288 49.2922C36.3274 49.2931 36.3266 49.2949 36.3252 49.2958C36.2962 49.3384 36.2565 49.3761 36.2122 49.4076C36.2108 49.4086 36.21 49.4103 36.2086 49.4112C36.1796 49.4538 36.1399 49.4916 36.0956 49.5231C36.0942 49.524 36.0934 49.5257 36.092 49.5267C36.063 49.5693 36.0269 49.607 35.9826 49.6385C35.9782 49.6416 35.9726 49.6428 35.9681 49.6458C35.9397 49.6857 35.9081 49.7241 35.866 49.7541C35.8624 49.7567 35.8588 49.7588 35.8551 49.7614C35.8265 49.8021 35.7921 49.8392 35.7494 49.8696C35.7463 49.872 35.7417 49.8711 35.7385 49.8732C35.7101 49.9134 35.6751 49.9514 35.6328 49.9815C35.6314 49.9824 35.6306 49.9842 35.6292 49.9851C35.6002 50.0277 35.5606 50.0654 35.5163 50.0969C35.5149 50.0979 35.514 50.0996 35.5126 50.1005C35.4836 50.1431 35.444 50.1809 35.3997 50.2124C35.3983 50.2133 35.3974 50.215 35.396 50.216C35.367 50.2586 35.331 50.2963 35.2867 50.3278C35.2831 50.3304 35.2794 50.3326 35.2757 50.3351C35.2472 50.376 35.2129 50.4128 35.1701 50.4434C35.1665 50.446 35.1629 50.4481 35.1591 50.4507C35.1306 50.4914 35.0962 50.5285 35.0535 50.5589C35.0489 50.5622 35.0436 50.5631 35.0389 50.5662C35.0109 50.6054 34.9782 50.6415 34.9369 50.6708C34.9355 50.6717 34.9347 50.6735 34.9333 50.6744C34.9042 50.717 34.8646 50.7547 34.8203 50.7863C34.8189 50.7872 34.8181 50.7889 34.8167 50.7898C34.7877 50.8324 34.748 50.8702 34.7037 50.9017C34.7023 50.9026 34.7015 50.9044 34.7001 50.9053C34.6711 50.9479 34.635 50.9856 34.5907 51.0171C34.5871 51.0197 34.5835 51.0219 34.5798 51.0244C34.5512 51.0653 34.5169 51.1021 34.4741 51.1327C34.4705 51.1354 34.4669 51.1374 34.4632 51.14C34.4346 51.1807 34.4002 51.2178 34.3575 51.2483C34.3539 51.2509 34.3503 51.253 34.3466 51.2555C34.318 51.2963 34.2836 51.3298 34.2409 51.3601C34.2395 51.361 34.2387 51.3628 34.2373 51.3637C34.2083 51.4063 34.1687 51.444 34.1243 51.4756C34.1229 51.4765 34.1221 51.4782 34.1207 51.4791C34.0917 51.5217 34.0521 51.5595 34.0077 51.591C34.0064 51.5919 34.0055 51.5937 34.0041 51.5946C33.9751 51.6372 33.9355 51.6749 33.8912 51.7065C33.8898 51.7074 33.8889 51.7091 33.8875 51.71C33.8585 51.7526 33.8225 51.7904 33.7782 51.8219C33.7746 51.8245 33.7709 51.8266 33.7672 51.8292C33.7386 51.8699 33.7043 51.907 33.6616 51.9375C33.658 51.9401 33.6544 51.9422 33.6506 51.9447C33.6221 51.9855 33.5877 52.019 33.545 52.0493C33.5436 52.0502 33.5428 52.052 33.5414 52.0529C33.5123 52.0955 33.4727 52.1332 33.4284 52.1648C33.427 52.1657 33.4262 52.1674 33.4248 52.1683C33.3957 52.2109 33.3561 52.2487 33.3118 52.2802C33.3104 52.2811 33.3096 52.2829 33.3082 52.2838C33.2792 52.3264 33.2395 52.3641 33.1952 52.3956C33.1938 52.3966 33.193 52.3983 33.1916 52.3992C33.1626 52.4418 33.1265 52.4796 33.0822 52.5111C33.0778 52.5142 33.0722 52.5154 33.0676 52.5184C33.0393 52.5583 33.0077 52.5966 32.9656 52.6266C32.962 52.6293 32.9584 52.6314 32.9547 52.6339C32.9261 52.6747 32.8917 52.7117 32.849 52.7422C32.8459 52.7445 32.8413 52.7437 32.8381 52.7458C32.8097 52.786 32.7746 52.8239 32.7324 52.8541C32.731 52.855 32.7302 52.8567 32.7288 52.8576C32.6998 52.9002 32.6601 52.938 32.6158 52.9695C32.6144 52.9704 32.6136 52.9722 32.6122 52.9731C32.5832 53.0157 32.5436 53.0534 32.4992 53.085C32.4978 53.0859 32.497 53.0876 32.4956 53.0885C32.4666 53.1311 32.4306 53.1689 32.3863 53.2004C32.3827 53.2029 32.379 53.2051 32.3753 53.2077C32.3467 53.2485 32.3125 53.2854 32.2697 53.316C32.2661 53.3186 32.2624 53.3207 32.2587 53.3232C32.2301 53.364 32.1958 53.401 32.1531 53.4315C32.1485 53.4347 32.1432 53.4357 32.1385 53.4388C32.1104 53.478 32.0779 53.5139 32.0365 53.5434C32.0351 53.5443 32.0343 53.546 32.0329 53.547C32.0038 53.5896 31.9642 53.6273 31.9199 53.6588C31.9185 53.6597 31.9177 53.6615 31.9163 53.6624C31.8872 53.705 31.8476 53.7427 31.8033 53.7743C31.8019 53.7752 31.8011 53.7769 31.7997 53.7778C31.7706 53.8204 31.7346 53.8582 31.6903 53.8897H31.6867C31.6844 53.8913 31.6817 53.8917 31.6794 53.8933C31.6506 53.9351 31.6173 53.9741 31.5737 54.0051C31.5701 54.0078 31.5665 54.0099 31.5628 54.0124C31.5342 54.0532 31.4998 54.0902 31.4571 54.1207C31.4535 54.1234 31.4499 54.1254 31.4462 54.128C31.4176 54.1687 31.3832 54.2022 31.3405 54.2326C31.3391 54.2335 31.3383 54.2352 31.3369 54.2361C31.3079 54.2787 31.2682 54.3165 31.2239 54.348C31.2225 54.3489 31.2217 54.3507 31.2203 54.3516C31.1913 54.3942 31.1516 54.4319 31.1073 54.4635C31.1059 54.4644 31.1051 54.4661 31.1037 54.467C31.0747 54.5096 31.0351 54.5474 30.9907 54.5789C30.9893 54.5798 30.9885 54.5816 30.9871 54.5825C30.977 54.5974 30.9663 54.6121 30.9544 54.6258C30.7864 54.629 30.6204 54.633 30.4515 54.633C17.1457 54.633 6.21729 44.5503 5.03385 31.6819C5.04714 31.6702 5.05939 31.6591 5.07396 31.6494C5.10404 31.6072 5.14159 31.5739 5.18333 31.5448C5.21551 31.4968 5.2569 31.4576 5.30354 31.4258C5.33502 31.3803 5.37186 31.3408 5.41652 31.3104C5.44917 31.2629 5.48986 31.2225 5.53673 31.1913C5.56879 31.1462 5.6082 31.1059 5.65332 31.0759C5.68539 31.0308 5.72479 30.9905 5.76992 30.9605C5.8 30.9182 5.83754 30.885 5.87928 30.8559C5.91146 30.8078 5.95285 30.7686 5.99949 30.7368C6.03097 30.6914 6.06781 30.6519 6.11247 30.6214C6.14511 30.574 6.18581 30.5336 6.23268 30.5024C6.26474 30.4572 6.30415 30.417 6.34927 30.3869C6.38134 30.3418 6.42075 30.3015 6.46587 30.2715C6.497 30.2276 6.53536 30.1893 6.57885 30.1596C6.60928 30.116 6.64915 30.0813 6.69183 30.0514C6.72401 30.0033 6.7654 29.9641 6.81204 29.9323C6.84457 29.8852 6.882 29.8442 6.92863 29.8133C6.9607 29.7682 7.00011 29.7279 7.04523 29.6979C7.07729 29.6527 7.1167 29.6124 7.16182 29.5824C7.19389 29.5373 7.2333 29.497 7.27842 29.467C7.3085 29.4247 7.34604 29.3915 7.38778 29.3624C7.41996 29.3144 7.46135 29.2751 7.50799 29.2434C7.53947 29.1979 7.57632 29.1584 7.62097 29.1279C7.65362 29.0805 7.69431 29.0401 7.74118 29.0089C7.77324 28.9638 7.81265 28.9235 7.85778 28.8935C7.88984 28.8483 7.92925 28.808 7.97437 28.778C8.00445 28.7358 8.042 28.7025 8.08374 28.6734C8.11592 28.6254 8.15731 28.5861 8.20395 28.5544C8.23542 28.5089 8.27227 28.4694 8.31693 28.439C8.34958 28.3915 8.39026 28.3511 8.43713 28.3199C8.4692 28.2748 8.50861 28.2345 8.55373 28.2045C8.58579 28.1594 8.6252 28.1191 8.67032 28.0891C8.70041 28.0468 8.73795 28.0136 8.77969 27.9845C8.81094 27.9378 8.8514 27.9004 8.89629 27.869C8.92893 27.8203 8.96904 27.782 9.01649 27.75C9.04903 27.7029 9.08645 27.6619 9.13309 27.631C9.16515 27.5858 9.20456 27.5455 9.24968 27.5155C9.28175 27.4704 9.32116 27.4301 9.36628 27.4001C9.39741 27.3563 9.43577 27.3179 9.47926 27.2882C9.50969 27.2446 9.54956 27.2098 9.59224 27.1799C9.62442 27.1319 9.66581 27.0927 9.71245 27.0609C9.74498 27.0138 9.78241 26.9728 9.82904 26.9419C9.86111 26.8968 9.90052 26.8565 9.94564 26.8265C9.9777 26.7813 10.0171 26.741 10.0622 26.711C10.0943 26.6659 10.1337 26.6256 10.1788 26.5956C10.2089 26.5533 10.2465 26.5201 10.2882 26.491C10.3204 26.443 10.3618 26.4037 10.4084 26.372C10.4399 26.3265 10.4767 26.287 10.5214 26.2565C10.554 26.2091 10.5947 26.1687 10.6416 26.1375C10.6737 26.0924 10.7131 26.0521 10.7582 26.022C10.7902 25.9769 10.8297 25.9366 10.8748 25.9066C10.9049 25.8644 10.9424 25.8311 10.9841 25.802C11.0163 25.754 11.0577 25.7147 11.1044 25.683C11.1358 25.6375 11.1727 25.598 11.2173 25.5676C11.25 25.5201 11.2907 25.4797 11.3375 25.4485C11.3696 25.4034 11.409 25.3631 11.4541 25.3331C11.4862 25.2879 11.5256 25.2477 11.5707 25.2176C11.6019 25.1739 11.6402 25.1354 11.6837 25.1058C11.7141 25.0621 11.754 25.0274 11.7967 24.9975C11.8293 24.9488 11.8694 24.9105 11.9169 24.8785C11.9494 24.8314 11.9869 24.7904 12.0335 24.7595C12.0656 24.7143 12.105 24.674 12.1501 24.644C12.1822 24.5989 12.2216 24.5586 12.2667 24.5286C12.2987 24.4834 12.3382 24.4431 12.3833 24.4131C12.4134 24.3709 12.4509 24.3376 12.4926 24.3085C12.5248 24.2605 12.5662 24.2213 12.6129 24.1895C12.6443 24.144 12.6812 24.1045 12.7258 24.0741C12.7585 24.0266 12.7992 23.9862 12.846 23.955C12.8781 23.9099 12.9175 23.8696 12.9626 23.8396C12.9947 23.7945 13.0341 23.7542 13.0792 23.7242C13.1093 23.6819 13.1469 23.6487 13.1886 23.6196C13.2208 23.5715 13.2622 23.5323 13.3088 23.5005C13.3403 23.4551 13.3771 23.4156 13.4218 23.3851C13.4544 23.3377 13.4951 23.2973 13.542 23.2661C13.5741 23.2209 13.6135 23.1807 13.6586 23.1506C13.6907 23.1055 13.7301 23.0652 13.7752 23.0352C13.8053 22.9929 13.8428 22.9597 13.8846 22.9306C13.9158 22.884 13.9563 22.8466 14.0011 22.8152C14.0338 22.7664 14.0739 22.7281 14.1214 22.6961C14.1539 22.649 14.1913 22.6081 14.238 22.5771C14.27 22.532 14.3094 22.4917 14.3545 22.4617C14.3866 22.4165 14.426 22.3763 14.4711 22.3462C14.5023 22.3025 14.5406 22.264 14.5841 22.2344C14.6146 22.1907 14.6544 22.156 14.6971 22.1261C14.7293 22.0781 14.7707 22.0388 14.8173 22.0071C14.8498 21.96 14.8873 21.919 14.9339 21.888C14.966 21.8429 15.0054 21.8026 15.0505 21.7726C15.0826 21.7275 15.122 21.6872 15.1671 21.6572C15.1992 21.612 15.2386 21.5717 15.2837 21.5417C15.3138 21.4995 15.3513 21.4662 15.3931 21.4371C15.4252 21.3891 15.4666 21.3499 15.5133 21.3181C15.5447 21.2726 15.5816 21.2331 15.6262 21.2027C15.6589 21.1552 15.6996 21.1148 15.7465 21.0836C15.7785 21.0385 15.8179 20.9982 15.863 20.9682C15.8951 20.9231 15.9345 20.8828 15.9796 20.8528C16.0097 20.8105 16.0473 20.7773 16.089 20.7482C16.1212 20.7001 16.1626 20.6609 16.2092 20.6291C16.2407 20.5837 16.2775 20.5442 16.3222 20.5137C16.3548 20.4663 16.3955 20.4258 16.4424 20.3947C16.4745 20.3495 16.5139 20.3092 16.559 20.2792C16.5911 20.2341 16.6305 20.1938 16.6756 20.1638C16.7067 20.12 16.7451 20.0816 16.7886 20.0519C16.819 20.0083 16.8589 19.9735 16.9016 19.9436C16.9342 19.8949 16.9743 19.8566 17.0218 19.8246C17.0543 19.7775 17.0917 19.7365 17.1384 19.7056C17.1704 19.6605 17.2098 19.6202 17.255 19.5902C17.287 19.545 17.3264 19.5047 17.3716 19.4747C17.4033 19.43 17.4435 19.3927 17.4881 19.3628C17.5185 19.3196 17.555 19.2842 17.5975 19.2546C17.6297 19.2065 17.6711 19.1673 17.7177 19.1355C17.7492 19.0901 17.786 19.0506 17.8307 19.0201C17.8633 18.9727 17.904 18.9322 17.9509 18.9011C17.983 18.8559 18.0224 18.8157 18.0675 18.7856C18.0996 18.7405 18.139 18.7002 18.1841 18.6702C18.2142 18.6279 18.2517 18.5947 18.2935 18.5656C18.3256 18.5176 18.367 18.4783 18.4137 18.4466C18.4452 18.4011 18.482 18.3616 18.5267 18.3311C18.5593 18.2837 18.6 18.2433 18.6469 18.2121C18.6789 18.167 18.7183 18.1267 18.7635 18.0967C18.7955 18.0515 18.8349 18.0112 18.8801 17.9812C18.9101 17.939 18.9477 17.9057 18.9894 17.8766C19.0207 17.83 19.0611 17.7926 19.106 17.7612C19.1381 17.7134 19.1762 17.6739 19.2226 17.6422C19.2553 17.5947 19.2959 17.5543 19.3428 17.5232C19.3749 17.478 19.4143 17.4377 19.4594 17.4077C19.4915 17.3626 19.5309 17.3223 19.576 17.2923C19.6071 17.2485 19.6455 17.2101 19.689 17.1804C19.7194 17.1368 19.7593 17.102 19.802 17.0721C19.8342 17.0241 19.8755 16.9848 19.9222 16.9531C19.9547 16.906 19.9921 16.865 20.0388 16.8341C20.0708 16.7889 20.1102 16.7486 20.1554 16.7186C20.1874 16.6735 20.2268 16.6332 20.272 16.6032C20.304 16.5581 20.3434 16.5178 20.3886 16.4877C20.4186 16.4455 20.4562 16.4122 20.4979 16.3832C20.5301 16.3351 20.5715 16.2959 20.6181 16.2641C20.6496 16.2186 20.6865 16.1792 20.7311 16.1487C20.7638 16.1012 20.8045 16.0608 20.8513 16.0297C20.8834 15.9845 20.9228 15.9442 20.9679 15.9142C21 15.8691 21.0394 15.8288 21.0845 15.7988C21.1146 15.7565 21.1521 15.7233 21.1939 15.6942C21.2261 15.6462 21.2675 15.6069 21.3141 15.5752C21.3456 15.5297 21.3824 15.4902 21.4271 15.4597C21.4597 15.4123 21.5004 15.3719 21.5473 15.3407C21.5793 15.2956 21.6187 15.2553 21.6639 15.2253C21.6959 15.1801 21.7353 15.1398 21.7805 15.1098C21.8116 15.0661 21.85 15.0276 21.8934 14.998C21.9816 14.8715 22.1304 14.7986 22.287 14.8068" fill="black" fill-opacity="0.235"/>
<path id="Vector_3" fill-rule="evenodd" clip-rule="evenodd" d="M30.1058 0.257812C46.5258 0.257812 59.8374 13.4379 59.8374 29.6957C59.8374 45.9535 46.5258 59.1336 30.1058 59.1336C13.6857 59.1336 0.374123 45.9535 0.374123 29.6957C0.374123 13.4379 13.6857 0.257812 30.1058 0.257812ZM29.0766 5.44477C14.9803 5.44477 3.55401 16.7582 3.55401 30.7152C3.55401 44.6722 14.9803 55.9856 29.0766 55.9856C43.1729 55.9856 54.6027 44.6722 54.6027 30.7152C54.6027 16.7582 43.1729 5.44477 29.0766 5.44477Z" fill="black" fill-opacity="0.067"/>
<g id="Group_2">
<path id="Vector_4" fill-rule="evenodd" clip-rule="evenodd" d="M30.1063 0.652344C46.3059 0.652344 59.438 13.6547 59.438 29.6943C59.438 45.7339 46.3059 58.7362 30.1063 58.7362C13.9066 58.7362 0.774544 45.7339 0.774544 29.6943C0.774544 13.6547 13.9066 0.652344 30.1063 0.652344ZM29.4201 5.10336C15.3238 5.10336 3.89753 16.4167 3.89753 30.3738C3.89753 44.3308 15.3238 55.6442 29.4201 55.6442C43.5164 55.6442 54.9462 44.3308 54.9462 30.3738C54.9462 16.4167 43.5164 5.10336 29.4201 5.10336Z" fill="black" fill-opacity="0.129"/>
<path id="Vector_5" fill-rule="evenodd" clip-rule="evenodd" d="M30.106 1.10742C46.0526 1.10742 58.9795 13.9066 58.9795 29.6957C58.9795 45.4848 46.0526 58.2839 30.106 58.2839C14.1593 58.2839 1.23248 45.4848 1.23248 29.6957C1.23248 13.9066 14.1593 1.10742 30.106 1.10742ZM29.763 4.76592C15.6667 4.76592 4.24039 16.0793 4.24039 30.0363C4.24039 43.9934 15.6667 55.3068 29.763 55.3068C43.8593 55.3068 55.289 43.9934 55.289 30.0363C55.289 16.0793 43.8593 4.76592 29.763 4.76592Z" fill="black" fill-opacity="0.129"/>
</g>
<path id="Vector_6" fill-rule="evenodd" clip-rule="evenodd" d="M30.4497 1.0498C46.239 1.0498 59.0376 13.7231 59.0376 29.3552C59.0376 44.9885 46.2378 57.6606 30.4497 57.6606C14.6605 57.6606 1.8619 44.9873 1.8619 29.3552C1.8619 13.722 14.6617 1.0498 30.4497 1.0498ZM30.4497 4.0856C16.3535 4.0856 4.92717 15.399 4.92717 29.356C4.92717 43.3131 16.3535 54.6264 30.4497 54.6264C44.546 54.6264 55.9758 43.3131 55.9758 29.356C55.9758 15.399 44.546 4.0856 30.4497 4.0856Z" fill="white" stroke="black" stroke-opacity="0.31" stroke-width="0.0544499"/>
</g>
</svg>
