<svg width="35" height="29" viewBox="0 0 35 29" fill="none" xmlns="http://www.w3.org/2000/svg">
<path id="Vector" fill-rule="evenodd" clip-rule="evenodd" d="M9.26054 0.572266C10.4276 0.861912 12.0658 1.58574 13.0549 2.02558C13.8864 1.36917 28.4395 10.5199 34.4302 14.3791C30.8545 13.0265 22.9223 10.0789 22.2624 10.8429C21.528 11.693 26.9565 17.2072 31.4932 24.8057C27.7493 20.8144 20.6405 11.6798 19.33 12.3459C19.2444 12.5979 20.6502 14.6721 22.5095 17.6898C24.7272 21.2881 26.3863 24.5159 28.0198 27.6135C27.8486 27.4848 28.2934 28.474 28.5194 28.8615C26.4959 26.6119 21.4491 19.4991 19.3784 16.5726C17.4851 13.8967 14.9666 9.51447 13.1061 9.49022C10.0032 9.44912 6.15585 15.6653 2.14383 24.9653C1.45965 26.5515 1.55118 26.81 1.18076 27.8459C0.892532 28.0697 0.802177 27.4506 0.712051 27.3488C0.754841 26.4332 1.26331 24.4982 2.12949 21.4312C4.03465 14.6835 6.01559 7.32867 10.726 3.98083L10.4229 2.07741C10.0864 1.64496 9.56298 1.03842 9.261 0.574344L9.26054 0.572266Z" fill="white" stroke="white" stroke-width="0.0855166" stroke-linecap="round" stroke-linejoin="round"/>
</svg>
