<svg width="132" height="132" viewBox="0 0 132 132" fill="none" xmlns="http://www.w3.org/2000/svg">
<g id="Group 29">
<rect id="Rectangle 26" x="0.379883" y="0.332031" width="131.1" height="130.725" rx="31" fill="white"/>
<g id="&#240;&#159;&#166;&#134; icon &#34;dribbble logo&#34;">
<path id="Vector" opacity="0.2" d="M63.8602 96.1882C77.9307 96.1882 89.3371 84.7818 89.3371 70.7113C89.3371 56.6408 77.9307 45.2344 63.8602 45.2344C49.7897 45.2344 38.3833 56.6408 38.3833 70.7113C38.3833 84.7818 49.7897 96.1882 63.8602 96.1882Z" fill="#F4A28C"/>
<path id="Vector_2" d="M91.4576 68.1265C91.458 68.0681 91.4598 68.01 91.4598 67.9516C91.4603 63.8551 90.5475 59.81 88.7878 56.1107C87.0281 52.4114 84.4659 49.1509 81.2874 46.5666C81.2386 46.5181 81.1874 46.4714 81.133 46.4269C81.0728 46.3781 81.01 46.3326 80.9449 46.2906C76.8943 43.0886 72.0256 41.089 66.8937 40.5196C61.7618 39.9503 56.5732 40.8341 51.9193 43.0705C51.8013 43.1165 51.6876 43.1729 51.5796 43.2392C47.8119 45.1184 44.5223 47.8319 41.9607 51.1734C39.3992 54.5149 37.6333 58.3965 36.7972 62.523C36.795 62.5336 36.7916 62.5437 36.7895 62.5545C36.7876 62.5646 36.787 62.5747 36.7852 62.5848C35.7759 67.6819 36.2266 72.9604 38.0855 77.8127C39.9443 82.6649 43.1357 86.8935 47.2922 90.0117C47.3988 90.1109 47.5154 90.199 47.6401 90.2745C47.6498 90.2803 47.66 90.284 47.6697 90.2897C51.27 92.9049 55.4499 94.6094 59.8522 95.2576C64.2545 95.9058 68.7483 95.4784 72.9495 94.0119C73.0577 93.983 73.1634 93.9457 73.2658 93.9002C78.5524 91.9761 83.1263 88.4851 86.3767 83.8932C89.6271 79.3013 91.3993 73.8271 91.4567 68.2015C91.457 68.1764 91.458 68.1514 91.4576 68.1265ZM87.1203 65.8757C86.444 65.8453 85.7667 65.828 85.0921 65.828C81.1543 65.8288 77.2339 66.3498 73.4327 67.3775C72.5041 64.6274 71.3072 61.9754 69.8593 59.4597C73.6336 57.1843 77.0501 54.3625 79.9977 51.0862C84.0872 54.9889 86.6186 60.2451 87.1203 65.8757ZM76.6725 48.4365C74.0167 51.3497 70.9486 53.8583 67.5658 55.8824C64.7345 51.8975 61.2714 48.4016 57.3133 45.5329C60.5578 44.5855 63.9695 44.3544 67.3122 44.8558C70.6548 45.3571 73.8486 46.5789 76.6725 48.4365V48.4365ZM52.6203 47.486C56.9617 50.2165 60.7466 53.7445 63.775 57.8835C58.4764 60.3252 52.7108 61.587 46.8767 61.5818C45.077 61.5809 43.2793 61.4611 41.4954 61.2233C43.2711 55.369 47.263 50.4397 52.6203 47.486ZM40.5059 67.9516C40.5063 67.0973 40.5532 66.2437 40.6465 65.3945C42.7107 65.6828 44.7925 65.8276 46.8767 65.828C53.5367 65.8351 60.1135 64.348 66.1225 61.4762C67.4472 63.7628 68.542 66.1749 69.3911 68.6774C67.1353 69.5238 64.9525 70.5533 62.8646 71.7556C57.0387 75.1197 52.0438 79.7507 48.2494 85.3059C45.8117 83.1197 43.8622 80.4442 42.528 77.454C41.1938 74.4638 40.5048 71.226 40.5059 67.9516ZM51.6527 87.8531C55.0988 82.7575 59.6573 78.5112 64.9843 75.4348C66.7666 74.41 68.6253 73.5244 70.544 72.7859C71.2016 75.7015 71.5341 78.6811 71.5354 81.6699C71.5362 84.5749 71.2251 87.4716 70.6074 90.3102C67.4536 91.2621 64.1339 91.5353 60.8669 91.1118C57.5999 90.6883 54.4596 89.5777 51.6527 87.8531ZM75.2872 88.3121C75.6159 86.1133 75.7811 83.8931 75.7816 81.6699C75.7815 78.2323 75.3851 74.8061 74.6001 71.4592C78.0217 70.5403 81.5492 70.0746 85.0921 70.0741C85.7638 70.0741 86.4387 70.0909 87.1118 70.124C86.7561 73.8852 85.4948 77.5043 83.4355 80.6717C81.3763 83.8392 78.5805 86.4607 75.2872 88.312V88.3121Z" fill="#F4A28C"/>
</g>
</g>
</svg>
