<svg xmlns="http://www.w3.org/2000/svg" width="20" height="20" viewBox="0 0 20 20" fill="none">
<path d="M4.16667 3.3335H7.5L9.16667 7.50016L7.08333 8.75016C7.9758 10.5598 9.44039 12.0244 11.25 12.9168L12.5 10.8335L16.6667 12.5002V15.8335C16.6667 16.2755 16.4911 16.6994 16.1785 17.012C15.866 17.3246 15.442 17.5002 15 17.5002C11.7494 17.3026 8.68346 15.9222 6.38069 13.6195C4.07792 11.3167 2.69754 8.25078 2.5 5.00016C2.5 4.55814 2.67559 4.13421 2.98816 3.82165C3.30072 3.50909 3.72464 3.3335 4.16667 3.3335" stroke="white" stroke-width="1.5" stroke-linecap="round" stroke-linejoin="round"/>
<path d="M12.5 5.8335C12.942 5.8335 13.366 6.00909 13.6785 6.32165C13.9911 6.63421 14.1667 7.05814 14.1667 7.50016" stroke="white" stroke-width="1.5" stroke-linecap="round" stroke-linejoin="round"/>
<path d="M12.5 2.5C13.8261 2.5 15.0979 3.02678 16.0355 3.96447C16.9732 4.90215 17.5 6.17392 17.5 7.5" stroke="white" stroke-width="1.5" stroke-linecap="round" stroke-linejoin="round"/>
</svg>