<svg xmlns="http://www.w3.org/2000/svg" width="161" height="160" viewBox="0 0 161 160" fill="none">
  <g filter="url(#filter0_d_541_1739)">
    <rect x="15" y="14" width="130.373" height="130" rx="31" fill="white" fill-opacity="0.2" shape-rendering="crispEdges"/>
  </g>
  <path d="M120.553 81.9359L122.92 83.4092C122.151 84.4658 120.314 86.2784 117.137 86.2784C113.191 86.2784 110.253 83.4286 110.253 79.8035C110.253 75.9457 113.222 73.3286 116.804 73.3286C120.407 73.3286 122.172 76.0039 122.743 77.4481L123.055 78.1848L113.773 81.7711C114.479 83.07 115.579 83.7291 117.137 83.7291C118.694 83.7291 119.774 83.0118 120.553 81.9359ZM113.274 79.5999L119.473 77.1961C119.13 76.3916 118.113 75.8197 116.898 75.8197C115.351 75.8197 113.202 77.0992 113.274 79.5999Z" fill="#FF302F"/>
  <path d="M105.777 66.7266H108.768V85.6859H105.777V66.7266Z" fill="#20B15A"/>
  <path d="M101.064 73.8326H103.95V85.3478C103.95 90.1264 100.929 92.094 97.357 92.094C93.993 92.094 91.9684 89.981 91.2104 88.2653L93.858 87.2379C94.3356 88.2944 95.4881 89.5448 97.357 89.5448C99.6515 89.5448 101.064 88.2169 101.064 85.7355V84.805H100.96C100.275 85.5804 98.9663 86.2783 97.3051 86.2783C93.8373 86.2783 90.6602 83.4576 90.6602 79.8228C90.6602 76.1686 93.8373 73.3188 97.3051 73.3188C98.9559 73.3188 100.275 74.007 100.96 74.7631H101.064V73.8326ZM101.271 79.8228C101.271 77.5353 99.6412 75.8681 97.5646 75.8681C95.4673 75.8681 93.7023 77.5353 93.7023 79.8228C93.7023 82.0812 95.4673 83.7193 97.5646 83.7193C99.6412 83.729 101.271 82.0812 101.271 79.8228Z" fill="#3686F7"/>
  <path d="M74.2453 79.7736C74.2453 83.5054 71.1305 86.2485 67.3096 86.2485C63.4888 86.2485 60.374 83.4957 60.374 79.7736C60.374 76.0225 63.4888 73.2891 67.3096 73.2891C71.1305 73.2891 74.2453 76.0225 74.2453 79.7736ZM71.2135 79.7736C71.2135 77.4473 69.4069 75.848 67.3096 75.848C65.2123 75.848 63.4058 77.4473 63.4058 79.7736C63.4058 82.0805 65.2123 83.6993 67.3096 83.6993C69.4069 83.6993 71.2135 82.0805 71.2135 79.7736Z" fill="#FF302F"/>
  <path d="M89.3947 79.803C89.3947 83.5348 86.2799 86.2779 82.4591 86.2779C78.6382 86.2779 75.5234 83.5348 75.5234 79.803C75.5234 76.0518 78.6382 73.3281 82.4591 73.3281C86.2799 73.3281 89.3947 76.0421 89.3947 79.803ZM86.3526 79.803C86.3526 77.4767 84.546 75.8774 82.4487 75.8774C80.3514 75.8774 78.5448 77.4767 78.5448 79.803C78.5448 82.1099 80.3514 83.7286 82.4487 83.7286C84.5564 83.7286 86.3526 82.1002 86.3526 79.803Z" fill="#FFBA40"/>
  <path d="M48.9745 83.4376C44.6241 83.4376 41.2186 80.1614 41.2186 76.1C41.2186 72.0387 44.6241 68.7625 48.9745 68.7625C51.321 68.7625 53.0341 69.6252 54.3008 70.7301L56.3877 68.7819C54.6227 67.2019 52.2658 66 48.9745 66C43.0148 66 38 70.5363 38 76.1C38 81.6638 43.0148 86.2 48.9745 86.2C52.1931 86.2 54.6227 85.2114 56.5227 83.3697C58.4746 81.5474 59.0768 78.9885 59.0768 76.9142C59.0768 76.2648 58.9938 75.596 58.9003 75.1017H48.9745V77.7963H56.0451C55.8374 79.4829 55.2664 80.6363 54.4254 81.4214C53.4079 82.381 51.7986 83.4376 48.9745 83.4376Z" fill="#3686F7"/>
  <defs>
    <filter id="filter0_d_541_1739" x="0" y="0" width="160.373" height="160" filterUnits="userSpaceOnUse" color-interpolation-filters="sRGB">
      <feFlood flood-opacity="0" result="BackgroundImageFix"/>
      <feColorMatrix in="SourceAlpha" type="matrix" values="0 0 0 0 0 0 0 0 0 0 0 0 0 0 0 0 0 0 127 0" result="hardAlpha"/>
      <feMorphology radius="1" operator="dilate" in="SourceAlpha" result="effect1_dropShadow_541_1739"/>
      <feOffset dy="1"/>
      <feGaussianBlur stdDeviation="7"/>
      <feComposite in2="hardAlpha" operator="out"/>
      <feColorMatrix type="matrix" values="0 0 0 0 0 0 0 0 0 0 0 0 0 0 0 0 0 0 0.04 0"/>
      <feBlend mode="normal" in2="BackgroundImageFix" result="effect1_dropShadow_541_1739"/>
      <feBlend mode="normal" in="SourceGraphic" in2="effect1_dropShadow_541_1739" result="shape"/>
    </filter>
  </defs>
</svg>