<svg xmlns="http://www.w3.org/2000/svg" width="29" height="19" viewBox="0 0 29 19" fill="none">
<path d="M11.3701 12.7998L19.1143 9.08027L11.3701 5.32959V12.7998Z" fill="white"/>
<path opacity="0.12" d="M11.3701 5.32959L18.1631 9.53741L19.1143 9.08027L11.3701 5.32959Z" fill="#420000"/>
<path d="M28.3471 4.0312C28.3471 4.0312 28.0674 2.20261 27.206 1.39222C26.1209 0.33247 24.9016 0.33247 24.331 0.270132C20.3374 0 14.3301 0 14.3301 0H14.319C14.319 0 8.31171 0 4.29569 0.270132C3.73635 0.33247 2.517 0.33247 1.42071 1.39222C0.570521 2.20261 0.290854 4.0312 0.290854 4.0312C0.290854 4.0312 0 6.19225 0 8.34292V10.3585C0 12.5092 0.290854 14.6598 0.290854 14.6598C0.290854 14.6598 0.570521 16.4884 1.4319 17.2988C2.517 18.3586 3.9489 18.3274 4.58654 18.4313C6.87981 18.6391 14.319 18.7014 14.319 18.7014C14.319 18.7014 20.3374 18.691 24.3422 18.4209C24.9016 18.3586 26.1209 18.3586 27.2172 17.2988C28.0786 16.4884 28.3583 14.6598 28.3583 14.6598C28.3583 14.6598 28.6491 12.5092 28.6491 10.3585V8.34292C28.6379 6.19225 28.3471 4.0312 28.3471 4.0312ZM11.3657 12.8001V5.32991L19.1069 9.08059L11.3657 12.8001Z" fill="url(#paint0_linear_541_1752)"/>
<defs>
<linearGradient id="paint0_linear_541_1752" x1="14.319" y1="1.87014e-07" x2="14.319" y2="18.7071" gradientUnits="userSpaceOnUse">
<stop stop-color="#E52D27"/>
<stop offset="1" stop-color="#BF171D"/>
</linearGradient>
</defs>
</svg>