<svg xmlns="http://www.w3.org/2000/svg" width="162" height="160" viewBox="0 0 162 160" fill="none">
  <g filter="url(#filter0_d_541_1734)">
    <rect x="15" y="14" width="131.1" height="130" rx="31" fill="white" fill-opacity="0.2" shape-rendering="crispEdges"/>
  </g>
  <path opacity="0.2" d="M80.6 106.837C94.6705 106.837 106.077 95.4302 106.077 81.3597C106.077 67.2892 94.6705 55.8828 80.6 55.8828C66.5294 55.8828 55.123 67.2892 55.123 81.3597C55.123 95.4302 66.5294 106.837 80.6 106.837Z" fill="#F4A28C"/>
  <path d="M108.198 78.7749C108.198 78.7165 108.2 78.6584 108.2 78.6C108.201 74.5035 107.288 70.4584 105.528 66.7591C103.768 63.0598 101.206 59.7994 98.0277 57.215C97.9788 57.1666 97.9276 57.1198 97.8732 57.0754C97.813 57.0266 97.7503 56.9811 97.6852 56.939C93.6346 53.737 88.7659 51.7374 83.634 51.1681C78.5021 50.5987 73.3135 51.4826 68.6595 53.7189C68.5415 53.7649 68.4278 53.8214 68.3199 53.8876C64.5522 55.7668 61.2625 58.4803 58.701 61.8219C56.1395 65.1634 54.3735 69.0449 53.5374 73.1714C53.5352 73.182 53.5318 73.1921 53.5297 73.2029C53.5278 73.213 53.5273 73.2231 53.5255 73.2332C52.5162 78.3303 52.9669 83.6089 54.8257 88.4611C56.6845 93.3133 59.8759 97.5419 64.0324 100.66C64.1391 100.759 64.2556 100.847 64.3803 100.923C64.39 100.929 64.4003 100.932 64.41 100.938C68.0102 103.553 72.1901 105.258 76.5924 105.906C80.9947 106.554 85.4885 106.127 89.6897 104.66C89.7979 104.631 89.9037 104.594 90.006 104.549C95.2926 102.625 99.8665 99.1335 103.117 94.5416C106.367 89.9498 108.14 84.4756 108.197 78.85C108.197 78.8248 108.198 78.7998 108.198 78.7749ZM103.861 76.5241C103.184 76.4938 102.507 76.4764 101.832 76.4764C97.8946 76.4772 93.9742 76.9983 90.1729 78.026C89.2443 75.2759 88.0474 72.6238 86.5995 70.1081C90.3738 67.8327 93.7904 65.011 96.7379 61.7346C100.827 65.6373 103.359 70.8935 103.861 76.5241ZM93.4127 59.0849C90.7569 61.9981 87.6888 64.5067 84.3061 66.5308C81.4747 62.5459 78.0116 59.0501 74.0535 56.1814C77.2981 55.2339 80.7097 55.0029 84.0524 55.5042C87.3951 56.0056 90.5889 57.2273 93.4127 59.0849V59.0849ZM69.3606 58.1344C73.7019 60.8649 77.4868 64.393 80.5153 68.532C75.2167 70.9736 69.451 72.2354 63.6169 72.2303C61.8172 72.2294 60.0196 72.1096 58.2357 71.8717C60.0113 66.0174 64.0032 61.0881 69.3606 58.1344ZM57.2462 78.6C57.2465 77.7457 57.2935 76.8921 57.3868 76.043C59.451 76.3312 61.5327 76.476 63.6169 76.4764C70.277 76.4835 76.8537 74.9964 82.8628 72.1247C84.1874 74.4112 85.2823 76.8234 86.1314 79.3258C83.8756 80.1722 81.6928 81.2017 79.6048 82.404C73.779 85.7682 68.7841 90.3991 64.9896 95.9543C62.552 93.7681 60.6025 91.0927 59.2683 88.1025C57.934 85.1122 57.245 81.8744 57.2462 78.6ZM68.393 98.5015C71.839 93.4059 76.3976 89.1597 81.7245 86.0833C83.5068 85.0585 85.3656 84.1729 87.2842 83.4343C87.9418 86.35 88.2743 89.3295 88.2757 92.3184C88.2764 95.2234 87.9653 98.1201 87.3476 100.959C84.1938 101.911 80.8741 102.184 77.6071 101.76C74.3401 101.337 71.1998 100.226 68.393 98.5015ZM92.0275 98.9605C92.3561 96.7617 92.5214 94.5416 92.5218 92.3184C92.5218 88.8807 92.1253 85.4545 91.3403 82.1077C94.7619 81.1887 98.2894 80.723 101.832 80.7226C102.504 80.7226 103.179 80.7393 103.852 80.7725C103.496 84.5337 102.235 88.1528 100.176 91.3202C98.1166 94.4876 95.3207 97.1091 92.0275 98.9605V98.9605Z" fill="#F4A28C"/>
  <defs>
    <filter id="filter0_d_541_1734" x="0" y="0" width="161.1" height="160" filterUnits="userSpaceOnUse" color-interpolation-filters="sRGB">
      <feFlood flood-opacity="0" result="BackgroundImageFix"/>
      <feColorMatrix in="SourceAlpha" type="matrix" values="0 0 0 0 0 0 0 0 0 0 0 0 0 0 0 0 0 0 127 0" result="hardAlpha"/>
      <feMorphology radius="1" operator="dilate" in="SourceAlpha" result="effect1_dropShadow_541_1734"/>
      <feOffset dy="1"/>
      <feGaussianBlur stdDeviation="7"/>
      <feComposite in2="hardAlpha" operator="out"/>
      <feColorMatrix type="matrix" values="0 0 0 0 0 0 0 0 0 0 0 0 0 0 0 0 0 0 0.04 0"/>
      <feBlend mode="normal" in2="BackgroundImageFix" result="effect1_dropShadow_541_1734"/>
      <feBlend mode="normal" in="SourceGraphic" in2="effect1_dropShadow_541_1734" result="shape"/>
    </filter>
  </defs>
</svg>