<svg width="13" height="13" viewBox="0 0 13 13" fill="none" xmlns="http://www.w3.org/2000/svg">
<g id="instagram 1" clip-path="url(#clip0_533_36949)">
<path id="Vector" d="M9.481 0H3.51898C1.57858 0 0 1.57858 0 3.51898V9.4811C0 11.4214 1.57858 13 3.51898 13H9.4811C11.4214 13 13 11.4214 13 9.4811V3.51898C13 1.57858 11.4214 0 9.481 0V0ZM12.2379 9.4811C12.2379 11.0012 11.0012 12.2379 9.481 12.2379H3.51898C1.99881 12.2379 0.762114 11.0012 0.762114 9.4811V3.51898C0.762114 1.99881 1.99881 0.762114 3.51898 0.762114H9.4811C11.0012 0.762114 12.2379 1.99881 12.2379 3.51898V9.4811Z" fill="#6800D7"/>
<path id="Vector_2" d="M6.49989 2.94531C4.53986 2.94531 2.94531 4.53986 2.94531 6.49989C2.94531 8.45993 4.53986 10.0545 6.49989 10.0545C8.45993 10.0545 10.0545 8.45993 10.0545 6.49989C10.0545 4.53986 8.45993 2.94531 6.49989 2.94531ZM6.49989 9.29236C4.96019 9.29236 3.70743 8.03969 3.70743 6.49989C3.70743 4.96019 4.96019 3.70743 6.49989 3.70743C8.03969 3.70743 9.29236 4.96019 9.29236 6.49989C9.29236 8.03969 8.03969 9.29236 6.49989 9.29236Z" fill="#6800D7"/>
<path id="Vector_3" d="M10.1397 1.68262C9.56047 1.68262 9.08936 2.15383 9.08936 2.73295C9.08936 3.31218 9.56047 3.78339 10.1397 3.78339C10.7189 3.78339 11.1901 3.31218 11.1901 2.73295C11.1901 2.15373 10.7189 1.68262 10.1397 1.68262ZM10.1397 3.02118C9.9808 3.02118 9.85147 2.89184 9.85147 2.73295C9.85147 2.57397 9.9808 2.44473 10.1397 2.44473C10.2987 2.44473 10.428 2.57397 10.428 2.73295C10.428 2.89184 10.2987 3.02118 10.1397 3.02118Z" fill="#6800D7"/>
</g>
<defs>
<clipPath id="clip0_533_36949">
<rect width="13" height="13" fill="white"/>
</clipPath>
</defs>
</svg>
