<svg width="11" height="11" viewBox="0 0 11 11" fill="none" xmlns="http://www.w3.org/2000/svg">
<g id="linkedin 1" clip-path="url(#clip0_533_36963)">
<path id="Vector" d="M10.9971 11.0003V10.9998H10.9998V6.96555C10.9998 4.99197 10.575 3.47168 8.26771 3.47168C7.15854 3.47168 6.41421 4.08035 6.11033 4.65739H6.07825V3.65593H3.89062V10.9998H6.16854V7.36339C6.16854 6.40593 6.35004 5.4801 7.53575 5.4801C8.70404 5.4801 8.72146 6.57276 8.72146 7.42481V11.0003H10.9971Z" fill="#6800D7"/>
<path id="Vector_2" d="M0.181641 3.65625H2.46231V11.0001H0.181641V3.65625Z" fill="#6800D7"/>
<path id="Vector_3" d="M1.32092 0C0.591708 0 0 0.591708 0 1.32092C0 2.05013 0.591708 2.65421 1.32092 2.65421C2.05013 2.65421 2.64183 2.05013 2.64183 1.32092C2.64138 0.591708 2.04967 0 1.32092 0V0Z" fill="#6800D7"/>
</g>
<defs>
<clipPath id="clip0_533_36963">
<rect width="11" height="11" fill="white"/>
</clipPath>
</defs>
</svg>
