<svg width="100" height="100" viewBox="0 0 100 100" fill="none" xmlns="http://www.w3.org/2000/svg">
<g id="solar:play-circle-broken">
<g id="Group">
<path id="Vector" d="M57.8668 41.3958C62.346 45.05 64.5835 46.875 64.5835 50C64.5835 53.125 62.346 54.95 57.8668 58.6042C56.6293 59.6125 55.4043 60.5625 54.2752 61.3542C53.2877 62.05 52.1668 62.7667 51.0085 63.4708C46.5377 66.1875 44.3043 67.5458 42.3002 66.0417C40.3002 64.5417 40.1168 61.3917 39.7502 55.0917C39.6502 53.3125 39.5835 51.5667 39.5835 50C39.5835 48.4333 39.6502 46.6875 39.7502 44.9083C40.1168 38.6083 40.3002 35.4625 42.3002 33.9583C44.3043 32.4542 46.5418 33.8125 51.0085 36.5292C52.1668 37.2333 53.2877 37.95 54.2752 38.6458C55.4002 39.4375 56.6293 40.3875 57.8668 41.3958Z" stroke="white" stroke-width="3"/>
<path id="Vector_2" d="M29.1668 13.9081C35.4982 10.2451 42.6856 8.32179 50.0002 8.33306C73.0127 8.33306 91.6668 26.9872 91.6668 49.9997C91.6668 73.0122 73.0127 91.6664 50.0002 91.6664C26.9877 91.6664 8.3335 73.0122 8.3335 49.9997C8.3335 42.4122 10.3627 35.2914 13.9085 29.1664" stroke="white" stroke-width="3" stroke-linecap="round"/>
</g>
</g>
</svg>
