<svg width="70" height="70" viewBox="0 0 70 70" fill="none" xmlns="http://www.w3.org/2000/svg">
<g id="Icon">
<rect x="0.5" y="0.5" width="69" height="69" rx="34.5" stroke="#D4005B"/>
<path id="Vector" d="M44.1945 36.2264C44.292 36.0734 44.3577 35.9023 44.3879 35.7234C44.418 35.5444 44.4119 35.3612 44.37 35.1847C44.328 35.0081 44.251 34.8418 44.1436 34.6956C44.0361 34.5494 43.9004 34.4262 43.7445 34.3334L29.9639 25.9556C29.7398 25.8199 29.4828 25.7483 29.2208 25.7486C28.4431 25.7486 27.8139 26.3639 27.8139 27.1236V43.8751C27.8139 44.132 27.8875 44.3834 28.0264 44.6014C28.4375 45.2459 29.3042 45.4431 29.9639 45.0417L43.7445 36.6653C43.9264 36.5542 44.082 36.4028 44.1959 36.225L44.1945 36.2264ZM45.2306 39L31.4514 47.3764C29.4722 48.5806 26.8681 47.9876 25.6375 46.0556C25.2215 45.4044 25.0003 44.6478 25 43.8751V27.125C25 24.8458 26.8889 23 29.2222 23C30.0097 23 30.782 23.2153 31.4514 23.6222L45.2306 32C47.2098 33.2028 47.8167 35.7445 46.5848 37.6778C46.2431 38.2139 45.7792 38.6667 45.2306 39Z" fill="#D4005B"/>
</g>
</svg>
