<svg width="51" height="50" viewBox="0 0 51 50" fill="none" xmlns="http://www.w3.org/2000/svg">
<g id="Quotes" clip-path="url(#clip0_533_36598)">
<path id="Vector" d="M11.4875 19.792C13.6507 19.792 15.7654 20.4335 17.5641 21.6353C19.3627 22.8371 20.7646 24.5453 21.5924 26.5439C22.4203 28.5425 22.6369 30.7416 22.2148 32.8633C21.7928 34.985 20.7511 36.9338 19.2215 38.4635C17.6918 39.9931 15.743 41.0348 13.6213 41.4568C11.4996 41.8789 9.30047 41.6623 7.3019 40.8344C5.30333 40.0066 3.59513 38.6047 2.3933 36.806C1.19147 35.0074 0.55 32.8927 0.55 30.7295L0.5 29.167C0.5 23.3654 2.80468 17.8014 6.90704 13.699C11.0094 9.59667 16.5734 7.29199 22.375 7.29199V13.542C20.3222 13.5365 18.2887 13.938 16.392 14.7232C14.4953 15.5085 12.7731 16.662 11.325 18.117C10.7622 18.6788 10.243 19.2826 9.77188 19.9232C10.3313 19.8357 10.9031 19.7889 11.4844 19.7889L11.4875 19.792ZM39.6125 19.792C41.7757 19.792 43.8904 20.4335 45.6891 21.6353C47.4877 22.8371 48.8896 24.5453 49.7174 26.5439C50.5453 28.5425 50.7619 30.7416 50.3398 32.8633C49.9178 34.985 48.8761 36.9338 47.3465 38.4635C45.8168 39.9931 43.868 41.0348 41.7463 41.4568C39.6246 41.8789 37.4255 41.6623 35.4269 40.8344C33.4283 40.0066 31.7201 38.6047 30.5183 36.806C29.3165 35.0074 28.675 32.8927 28.675 30.7295L28.625 29.167C28.625 23.3654 30.9297 17.8014 35.032 13.699C39.1344 9.59667 44.6984 7.29199 50.5 7.29199V13.542C48.4472 13.5365 46.4137 13.938 44.517 14.7232C42.6203 15.5085 40.8981 16.662 39.45 18.117C38.8872 18.6788 38.368 19.2826 37.8969 19.9232C38.4563 19.8357 39.0281 19.7889 39.6125 19.7889V19.792Z" fill="#6800D7"/>
</g>
<defs>
<clipPath id="clip0_533_36598">
<rect width="50" height="50" fill="white" transform="translate(0.5)"/>
</clipPath>
</defs>
</svg>
