<svg xmlns:xlink="http://www.w3.org/1999/xlink" class="Icon ContactHeroCard__copyIcon" width="39" height="40" viewBox="0 0 39 40" xmlns="http://www.w3.org/2000/svg"><defs><clipPath id="BuildingsIconClipPath--a"><path d="M37 0a2 2 0 012 2v36a2 2 0 01-2 2h-3v-8a1 1 0 00-1-1h-3a1 1 0 00-1 1v8H18a2 2 0 01-2-2V2a2 2 0 012-2h19zM25 20h-3a1 1 0 00-1 1v3a1 1 0 001 1h3a1 1 0 001-1v-3a1 1 0 00-1-1zm8 0h-3a1 1 0 00-1 1v3a1 1 0 001 1h3a1 1 0 001-1v-3a1 1 0 00-1-1zm0-8h-3a1 1 0 00-1 1v3a1 1 0 001 1h3a1 1 0 001-1v-3a1 1 0 00-1-1zm-8 0h-3a1 1 0 00-1 1v3a1 1 0 001 1h3a1 1 0 001-1v-3a1 1 0 00-1-1zm0-8h-3a1 1 0 00-1 1v3a1 1 0 001 1h3a1 1 0 001-1V5a1 1 0 00-1-1zm8 0h-3a1 1 0 00-1 1v3a1 1 0 001 1h3a1 1 0 001-1V5a1 1 0 00-1-1z" class="Icon__blendBackground" style="fill: var(--blendBackground);"></path></clipPath></defs><path d="M37 0a2 2 0 012 2v36a2 2 0 01-2 2h-3v-8a1 1 0 00-1-1h-3a1 1 0 00-1 1v8H18a2 2 0 01-2-2V2a2 2 0 012-2h19zM25 20h-3a1 1 0 00-1 1v3a1 1 0 001 1h3a1 1 0 001-1v-3a1 1 0 00-1-1zm8 0h-3a1 1 0 00-1 1v3a1 1 0 001 1h3a1 1 0 001-1v-3a1 1 0 00-1-1zm0-8h-3a1 1 0 00-1 1v3a1 1 0 001 1h3a1 1 0 001-1v-3a1 1 0 00-1-1zm-8 0h-3a1 1 0 00-1 1v3a1 1 0 001 1h3a1 1 0 001-1v-3a1 1 0 00-1-1zm0-8h-3a1 1 0 00-1 1v3a1 1 0 001 1h3a1 1 0 001-1V5a1 1 0 00-1-1zm8 0h-3a1 1 0 00-1 1v3a1 1 0 001 1h3a1 1 0 001-1V5a1 1 0 00-1-1z" class="Icon__blendBackground" style="" fill="#80E9FF"></path><path d="M22.954 12.057a2 2 0 01.046.424V38a2 2 0 01-2 2H2a2 2 0 01-2-2V16.612a2 2 0 011.575-1.954l19-4.13a2 2 0 012.38 1.529zM17 28h-3a1 1 0 00-1 1v3a1 1 0 001 1h3a1 1 0 001-1v-3a1 1 0 00-1-1zm-8 0H6a1 1 0 00-1 1v3a1 1 0 001 1h3a1 1 0 001-1v-3a1 1 0 00-1-1zm0-8H6a1 1 0 00-1 1v3a1 1 0 001 1h3a1 1 0 001-1v-3a1 1 0 00-1-1zm8 0h-3a1 1 0 00-1 1v3a1 1 0 001 1h3a1 1 0 001-1v-3a1 1 0 00-1-1z" class="Icon__blendForeground" style="" fill="#7A73FF"></path><g clip-path="url(#BuildingsIconClipPath--a)"><path d="M22.954 12.057a2 2 0 01.046.424V38a2 2 0 01-2 2H2a2 2 0 01-2-2V16.612a2 2 0 011.575-1.954l19-4.13a2 2 0 012.38 1.529zM17 28h-3a1 1 0 00-1 1v3a1 1 0 001 1h3a1 1 0 001-1v-3a1 1 0 00-1-1zm-8 0H6a1 1 0 00-1 1v3a1 1 0 001 1h3a1 1 0 001-1v-3a1 1 0 00-1-1zm0-8H6a1 1 0 00-1 1v3a1 1 0 001 1h3a1 1 0 001-1v-3a1 1 0 00-1-1zm8 0h-3a1 1 0 00-1 1v3a1 1 0 001 1h3a1 1 0 001-1v-3a1 1 0 00-1-1z" class="Icon__blendForeground" style="" fill="#0048E5"></path></g></svg>