<svg xmlns="http://www.w3.org/2000/svg" width="18" height="19" viewBox="0 0 18 19" fill="none">
<path d="M13.3833 6.97995L7.20104 3.88884C3.04827 1.80884 1.34382 3.51328 3.42382 7.66606L4.05215 8.92273C4.23271 9.29106 4.23271 9.71717 4.05215 10.0855L3.42382 11.3349C1.34382 15.4877 3.04104 17.1922 7.20104 15.1122L13.3833 12.0211C16.1566 10.6344 16.1566 8.36662 13.3833 6.97995ZM11.0505 10.0422H7.15049C6.85438 10.0422 6.60882 9.79662 6.60882 9.5005C6.60882 9.20439 6.85438 8.95884 7.15049 8.95884H11.0505C11.3466 8.95884 11.5922 9.20439 11.5922 9.5005C11.5922 9.79662 11.3466 10.0422 11.0505 10.0422Z" fill="white"/>
</svg>