<svg xmlns:xlink="http://www.w3.org/1999/xlink" class="Icon ContactHeroCard__copyIcon" xmlns="http://www.w3.org/2000/svg" viewBox="0 0 39 33" width="39" height="33"><defs><clipPath id="ChatBubblesWithQuestionMark--a"><path d="M2 19.24a12.73 12.73 0 1 1 4.43 4.42l-5.9 1.97c-.4.13-.63-.09-.5-.5l1.98-5.9z" class="Icon__blendBackground" style="fill: var(--blendBackground);"></path></clipPath></defs><path d="M2 19.24a12.73 12.73 0 1 1 4.43 4.42l-5.9 1.97c-.4.13-.63-.09-.5-.5l1.98-5.9z" class="Icon__blendBackground" style="" fill="#80E9FF"></path><path d="M16.73 10.73a12.73 12.73 0 0 1 19.93 15.5l1.97 5.9c.13.41-.09.63-.5.5l-5.9-1.97a12.73 12.73 0 0 1-15.5-19.93zM25.5 23.4c-.93 0-1.68.8-1.68 1.8s.75 1.8 1.68 1.8c.93 0 1.69-.8 1.69-1.8s-.76-1.8-1.69-1.8zm-3.2-10.1A4.73 4.73 0 0 0 21 16.8h2.66c0-1.74.92-2.47 1.88-2.47.4-.07.83.06 1.13.37.3.3.45.75.4 1.19 0 1.15-.16 1.37-1.15 2.18a4.11 4.11 0 0 0-1.77 3.53h2.48c.14-.9.65-1.67 1.38-2.11A4 4 0 0 0 30 16.04c0-1.39-.96-4.03-4.38-4.03a4.13 4.13 0 0 0-3.33 1.29z" class="Icon__blendForeground" style="" fill="#7A73FF"></path><g clip-path="url(#ChatBubblesWithQuestionMark--a)"><path d="M16.73 10.73a12.73 12.73 0 0 1 19.93 15.5l1.97 5.9c.13.41-.09.63-.5.5l-5.9-1.97a12.73 12.73 0 0 1-15.5-19.93zM25.5 23.4c-.93 0-1.68.8-1.68 1.8s.75 1.8 1.68 1.8c.93 0 1.69-.8 1.69-1.8s-.76-1.8-1.69-1.8zm-3.2-10.1A4.73 4.73 0 0 0 21 16.8h2.66c0-1.74.92-2.47 1.88-2.47.4-.07.83.06 1.13.37.3.3.45.75.4 1.19 0 1.15-.16 1.37-1.15 2.18a4.11 4.11 0 0 0-1.77 3.53h2.48c.14-.9.65-1.67 1.38-2.11A4 4 0 0 0 30 16.04c0-1.39-.96-4.03-4.38-4.03a4.13 4.13 0 0 0-3.33 1.29z" class="Icon__blendForeground" style="" fill="#0048E5"></path></g></svg>