<svg width="30" height="20" viewBox="0 0 30 20" fill="none" xmlns="http://www.w3.org/2000/svg">
<g id="&#240;&#159;&#166;&#134; icon &#34;youtube&#34;">
<path id="Vector" d="M12.3301 13.4503L20.0743 9.71006L12.3301 5.93848V13.4503Z" fill="white"/>
<path id="Vector_2" opacity="0.12" d="M12.3301 5.93848L19.1231 10.1698L20.0743 9.71006L12.3301 5.93848Z" fill="#420000"/>
<path id="Vector_3" d="M29.307 4.63277C29.307 4.63277 29.0274 2.79399 28.166 1.97908C27.0809 0.913425 25.8615 0.913425 25.291 0.850739C21.2974 0.579102 15.2901 0.579102 15.2901 0.579102H15.2789C15.2789 0.579102 9.27167 0.579102 5.25565 0.850739C4.69631 0.913425 3.47697 0.913425 2.38067 1.97908C1.53048 2.79399 1.25081 4.63277 1.25081 4.63277C1.25081 4.63277 0.959961 6.80587 0.959961 8.96852V10.9954C0.959961 13.158 1.25081 15.3207 1.25081 15.3207C1.25081 15.3207 1.53048 17.1594 2.39186 17.9744C3.47697 19.04 4.90886 19.0087 5.5465 19.1131C7.83977 19.3221 15.2789 19.3848 15.2789 19.3848C15.2789 19.3848 21.2974 19.3743 25.3022 19.1027C25.8615 19.04 27.0809 19.04 28.1772 17.9744C29.0385 17.1594 29.3182 15.3207 29.3182 15.3207C29.3182 15.3207 29.6091 13.158 29.6091 10.9954V8.96852C29.5979 6.80587 29.307 4.63277 29.307 4.63277ZM12.3256 13.4505V5.93872L20.0668 9.7103L12.3256 13.4505Z" fill="url(#paint0_linear_533_36647)"/>
</g>
<defs>
<linearGradient id="paint0_linear_533_36647" x1="15.2789" y1="0.579102" x2="15.2789" y2="19.3905" gradientUnits="userSpaceOnUse">
<stop stop-color="#E52D27"/>
<stop offset="1" stop-color="#BF171D"/>
</linearGradient>
</defs>
</svg>
