<svg id="visual" viewBox="0 0 900 900" width="900" height="900" xmlns="http://www.w3.org/2000/svg" xmlns:xlink="http://www.w3.org/1999/xlink" version="1.1"><rect x="0" y="0" width="900" height="900" fill="#ffffff"></rect><defs><linearGradient id="grad1_0" x1="0%" y1="100%" x2="100%" y2="0%"><stop offset="30%" stop-color="#ffffff" stop-opacity="1"></stop><stop offset="70%" stop-color="#ffffff" stop-opacity="1"></stop></linearGradient></defs><defs><linearGradient id="grad2_0" x1="0%" y1="100%" x2="100%" y2="0%"><stop offset="30%" stop-color="#ffffff" stop-opacity="1"></stop><stop offset="70%" stop-color="#ffffff" stop-opacity="1"></stop></linearGradient></defs><g transform="translate(900, 900)"><path d="M-445.5 0C-426.3 -73.1 -407.1 -146.3 -372.4 -215C-337.7 -283.7 -287.4 -348.1 -222.7 -385.8C-158.1 -423.5 -79 -434.5 0 -445.5L0 0Z" fill="#e2dfec"></path></g><g transform="translate(0, 0)"><path d="M445.5 0C439 86.9 432.5 173.8 385.8 222.7C339 271.7 252 282.7 181 313.5C110 344.3 55 394.9 0 445.5L0 0Z" fill="#e2dfec"></path></g></svg>