<svg id="visual" viewBox="0 0 900 900" width="900" height="900" xmlns="http://www.w3.org/2000/svg" xmlns:xlink="http://www.w3.org/1999/xlink" version="1.1"><rect x="0" y="0" width="900" height="900" fill="#ffffff"></rect><defs><linearGradient id="grad1_0" x1="0%" y1="0%" x2="100%" y2="100%"><stop offset="30%" stop-color="#ffffff" stop-opacity="1"></stop><stop offset="70%" stop-color="#ffffff" stop-opacity="1"></stop></linearGradient></defs><defs><linearGradient id="grad2_0" x1="0%" y1="0%" x2="100%" y2="100%"><stop offset="30%" stop-color="#ffffff" stop-opacity="1"></stop><stop offset="70%" stop-color="#ffffff" stop-opacity="1"></stop></linearGradient></defs><g transform="translate(900, 0)"><path d="M0 540.9C-41.5 535.2 -82.9 529.4 -116.2 508.9C-149.4 488.4 -174.5 453.3 -212.2 440.6C-249.9 427.9 -300.2 437.6 -337.3 422.9C-374.3 408.2 -398.1 369.1 -413.6 329.8C-429.1 290.6 -436.3 251.2 -446.9 215.2C-457.4 179.2 -471.2 146.6 -487.5 111.3C-503.7 76 -522.3 38 -540.9 0L0 0Z" fill="#e2dfec"></path></g><g transform="translate(0, 900)"><path d="M0 -540.9C41.4 -540.9 82.9 -540.8 120.4 -527.4C157.9 -514 191.4 -487.3 221.7 -460.4C252 -433.5 279.2 -406.5 301.1 -377.6C323.1 -348.8 339.9 -318.1 368.2 -293.7C396.5 -269.2 436.3 -251 462.2 -222.6C488.1 -194.1 500.1 -155.4 510.9 -116.6C521.7 -77.8 531.3 -38.9 540.9 0L0 0Z" fill="#e2dfec"></path></g></svg>