<svg id="visual" viewBox="0 0 900 900" width="900" height="900" xmlns="http://www.w3.org/2000/svg" xmlns:xlink="http://www.w3.org/1999/xlink" version="1.1"><rect x="0" y="0" width="900" height="900" fill="#ffffff"></rect><path d="M0 747L37.5 707.8C75 668.7 150 590.3 225 513.5C300 436.7 375 361.3 450 401.7C525 442 600 598 675 593.2C750 588.3 825 422.7 862.5 339.8L900 257L900 901L862.5 901C825 901 750 901 675 901C600 901 525 901 450 901C375 901 300 901 225 901C150 901 75 901 37.5 901L0 901Z" fill="#dfddec" stroke-linecap="round" stroke-linejoin="miter"></path></svg>