<svg width="160" height="161" viewBox="0 0 160 161" fill="none" xmlns="http://www.w3.org/2000/svg">
<g id="icon">
<g id="Rectangle 365" filter="url(#filter0_d_533_37672)">
<rect x="30" y="10.0703" width="100" height="100" rx="5" fill="#D4005B"/>
</g>
<g id="Group">
<path id="Vector" d="M95.0475 49.5503H109.657C110.327 49.5503 110.875 49.0024 110.875 48.3328V33.7228C110.875 33.0532 110.327 32.5053 109.657 32.5053H95.0475C94.3779 32.5053 93.83 33.0532 93.83 33.7228V39.8103H86.4032C85.9162 37.424 84.0413 35.5491 81.655 35.0621V31.2878C81.655 30.6182 81.1071 30.0703 80.4375 30.0703C79.7679 30.0703 79.22 30.6182 79.22 31.2878V35.0621C76.4441 35.6221 74.35 38.0815 74.35 41.0278C74.35 43.9742 76.4441 46.4213 79.22 46.9936V54.5421C76.8337 55.0291 74.9587 56.904 74.4718 59.2903H67.045V53.2028C67.045 52.5332 66.4971 51.9853 65.8275 51.9853H51.2175C50.5479 51.9853 50 52.5332 50 53.2028V67.8128C50 68.4824 50.5479 69.0303 51.2175 69.0303H65.8275C66.4971 69.0303 67.045 68.4824 67.045 67.8128V61.7253H74.4718C74.9587 64.1116 76.8337 65.9866 79.22 66.4736V74.0221C76.4441 74.5821 74.35 77.0415 74.35 79.9878C74.35 82.9342 76.4441 85.3813 79.22 85.9536V89.7278C79.22 90.3974 79.7679 90.9453 80.4375 90.9453C81.1071 90.9453 81.655 90.3974 81.655 89.7278V85.9536C84.0413 85.4666 85.9162 83.5916 86.4032 81.2053H93.83V87.2928C93.83 87.9624 94.3779 88.5103 95.0475 88.5103H109.657C110.327 88.5103 110.875 87.9624 110.875 87.2928V72.6828C110.875 72.0132 110.327 71.4653 109.657 71.4653H95.0475C94.3779 71.4653 93.83 72.0132 93.83 72.6828V78.7703H86.4032C85.9162 76.384 84.0413 74.5091 81.655 74.0221V66.4736C84.4309 65.9135 86.525 63.4542 86.525 60.5078C86.525 57.5615 84.4309 55.1143 81.655 54.5421V46.9936C84.0413 46.5066 85.9162 44.6316 86.4032 42.2453H93.83V48.3328C93.83 49.0024 94.3779 49.5503 95.0475 49.5503Z" fill="white"/>
</g>
</g>
<defs>
<filter id="filter0_d_533_37672" x="0" y="0.0703125" width="160" height="160" filterUnits="userSpaceOnUse" color-interpolation-filters="sRGB">
<feFlood flood-opacity="0" result="BackgroundImageFix"/>
<feColorMatrix in="SourceAlpha" type="matrix" values="0 0 0 0 0 0 0 0 0 0 0 0 0 0 0 0 0 0 127 0" result="hardAlpha"/>
<feOffset dy="20"/>
<feGaussianBlur stdDeviation="15"/>
<feColorMatrix type="matrix" values="0 0 0 0 0.831373 0 0 0 0 0 0 0 0 0 0.356863 0 0 0 0.2 0"/>
<feBlend mode="normal" in2="BackgroundImageFix" result="effect1_dropShadow_533_37672"/>
<feBlend mode="normal" in="SourceGraphic" in2="effect1_dropShadow_533_37672" result="shape"/>
</filter>
</defs>
</svg>
