<svg width="160" height="161" viewBox="0 0 160 161" fill="none" xmlns="http://www.w3.org/2000/svg">
<g id="icon">
<g id="Rectangle 365" filter="url(#filter0_d_533_37679)">
<rect x="30" y="10.0703" width="100" height="100" rx="5" fill="#D4005B"/>
</g>
<g id="Group">
<g id="Group_2">
<path id="Vector" d="M90.9241 56.0388C91.824 58.0957 92.3382 60.3454 92.3382 62.788C92.3382 71.9798 84.882 79.436 75.6902 79.436C66.4984 79.436 59.0421 71.9798 59.0421 62.788C59.0421 53.5319 66.4984 46.0757 75.6902 46.0757C78.0685 46.0757 80.3825 46.5899 82.4394 47.4898L86.4889 42.6689C83.275 40.9334 79.6112 39.9692 75.7545 39.9692C63.2202 39.9692 53 50.1895 53 62.7237C53 70.7585 57.2424 77.8934 63.5416 81.8786L60.0063 88.1136C59.6849 88.6921 59.6849 89.4634 60.0063 90.1062C60.3277 90.6847 61.0348 91.0704 61.6776 91.0704H89.7028C90.4099 91.0704 91.0527 90.6847 91.3741 90.1062C91.6955 89.5277 91.7597 88.7564 91.3741 88.1136L87.8388 81.8786C94.2023 77.8291 98.3804 70.7585 98.3804 62.7237C98.3804 58.867 97.4162 55.2032 95.6807 51.9893L90.9241 56.0388Z" fill="white"/>
<path id="Vector_2" d="M78.9672 51.6036C77.9388 51.2822 76.7818 51.0894 75.689 51.0894C69.2612 51.0894 64.0547 56.2959 64.0547 62.7237C64.0547 69.0872 69.2612 74.3581 75.689 74.3581C82.0526 74.3581 87.3234 69.1515 87.3234 62.7237C87.3234 61.5667 87.1306 60.474 86.8734 59.4455L78.9672 66.0019C77.0389 67.6089 74.0821 67.3517 72.4751 65.4234C70.9967 63.6879 71.061 61.181 72.4751 59.5098L78.9672 51.6036Z" fill="white"/>
<path id="Vector_3" d="M108.279 37.5909C108.15 37.2052 107.764 36.9481 107.314 36.9481H101.465V31.0988C101.465 30.7131 101.208 30.3274 100.822 30.1346C100.437 30.006 99.9867 30.0703 99.7296 30.3274L92.7232 37.3337C92.5304 37.5266 92.4019 37.7837 92.4019 38.0408V41.9618L74.404 61.4381C73.7612 62.1451 73.7612 63.2379 74.404 63.9449C75.111 64.7163 76.268 64.7163 76.9751 64.0092L96.3871 45.947H100.308C100.565 45.947 100.822 45.8185 101.015 45.6256L108.021 38.6193C108.343 38.4265 108.407 37.9765 108.279 37.5909Z" fill="white"/>
</g>
</g>
</g>
<defs>
<filter id="filter0_d_533_37679" x="0" y="0.0703125" width="160" height="160" filterUnits="userSpaceOnUse" color-interpolation-filters="sRGB">
<feFlood flood-opacity="0" result="BackgroundImageFix"/>
<feColorMatrix in="SourceAlpha" type="matrix" values="0 0 0 0 0 0 0 0 0 0 0 0 0 0 0 0 0 0 127 0" result="hardAlpha"/>
<feOffset dy="20"/>
<feGaussianBlur stdDeviation="15"/>
<feColorMatrix type="matrix" values="0 0 0 0 0.831373 0 0 0 0 0 0 0 0 0 0.356863 0 0 0 0.2 0"/>
<feBlend mode="normal" in2="BackgroundImageFix" result="effect1_dropShadow_533_37679"/>
<feBlend mode="normal" in="SourceGraphic" in2="effect1_dropShadow_533_37679" result="shape"/>
</filter>
</defs>
</svg>
