<svg width="160" height="161" viewBox="0 0 160 161" fill="none" xmlns="http://www.w3.org/2000/svg">
<g id="icon">
<g id="Rectangle 365" filter="url(#filter0_d_533_37657)">
<rect x="30" y="10.0703" width="100" height="100" rx="5" fill="#D4005B"/>
</g>
<g id="Group">
<path id="Vector" d="M110.035 88.7327L99.4304 58.1624C99.3349 57.7803 98.9528 57.5892 98.5706 57.4937C98.1885 57.4937 97.8064 57.6847 97.6153 58.0668L84.2408 87.2042L64.7522 61.315C64.5611 61.0284 64.2745 60.9328 63.8924 60.9328C63.6058 60.9328 63.3192 61.1239 63.1281 61.4105L49.0848 88.6372C48.7983 89.3059 49.2759 90.0702 49.9446 90.0702C63.6058 90.0702 97.5198 90.0702 109.175 90.0702C109.843 90.0702 110.321 89.4015 110.035 88.7327Z" fill="#FDFDFE"/>
<path id="Vector_2" d="M89.2117 71.8237L80.4227 54.6279C80.2317 54.2458 79.8496 54.0547 79.4674 54.0547C79.0853 54.0547 78.7987 54.3413 78.6076 54.7234L73.2578 69.5309L83.7664 83.4787L89.2117 71.8237Z" fill="#FDFDFE"/>
<path id="Vector_3" d="M79.3658 52.1439H79.4614C79.8435 52.1439 80.2256 52.2395 80.5122 52.335V44.788C83.4737 46.3165 86.2442 45.1701 89.2057 43.8326C92.3582 42.3996 94.8421 41.3488 97.4214 43.6416C97.708 43.9282 98.0902 43.9282 98.4723 43.8326C98.8544 43.6416 99.0455 43.355 99.0455 42.9728V31.6045C99.0455 31.3179 98.95 31.1268 98.7589 30.9357C95.5108 27.9742 92.3582 29.0251 88.4414 30.7447C85.2888 32.1777 82.805 33.2285 80.2256 30.9357C80.1301 30.9357 78.6016 29.9804 78.6016 31.6045C78.6016 43.6416 78.6016 49.5646 78.6016 52.335C78.8882 52.2395 79.0792 52.2395 79.3658 52.1439Z" fill="#FDFDFE"/>
</g>
</g>
<defs>
<filter id="filter0_d_533_37657" x="0" y="0.0703125" width="160" height="160" filterUnits="userSpaceOnUse" color-interpolation-filters="sRGB">
<feFlood flood-opacity="0" result="BackgroundImageFix"/>
<feColorMatrix in="SourceAlpha" type="matrix" values="0 0 0 0 0 0 0 0 0 0 0 0 0 0 0 0 0 0 127 0" result="hardAlpha"/>
<feOffset dy="20"/>
<feGaussianBlur stdDeviation="15"/>
<feColorMatrix type="matrix" values="0 0 0 0 0.831373 0 0 0 0 0 0 0 0 0 0.356863 0 0 0 0.2 0"/>
<feBlend mode="normal" in2="BackgroundImageFix" result="effect1_dropShadow_533_37657"/>
<feBlend mode="normal" in="SourceGraphic" in2="effect1_dropShadow_533_37657" result="shape"/>
</filter>
</defs>
</svg>
