<svg xmlns="http://www.w3.org/2000/svg" width="55" height="610" viewBox="0 0 55 610" fill="none">
  <path d="M-391.593 0.394742C-445.454 -1.33151 -477.318 35.6128 -501.574 83.7334C-545.834 171.537 -560.969 276.494 -546.42 365.852C-531.87 455.21 -479.049 517.336 -426.366 554.563C-346.51 610.991 -325.592 612.6 -247.502 607.018C-190.505 602.944 -159.81 595.565 -93.8078 561.844C-27.8058 528.123 76.4367 465.113 50.4201 374.546C29.8256 302.855 -112.881 282.313 -112.881 282.313C-112.881 282.313 -179.391 274.713 -219.361 243.749C-260.73 211.701 -286.939 128.037 -286.939 128.037C-286.939 128.037 -327.166 2.45965 -391.593 0.394742Z" fill="#D00059"/>
</svg>