<svg width="18" height="21" viewBox="0 0 18 21" fill="none" xmlns="http://www.w3.org/2000/svg">
<path id="Vector" d="M17.2933 0.564489C17.4429 0.383355 13.7774 4.3037 10.156 8.68714C9.70634 7.64517 8.99131 5.74395 7.41236 3.00708C7.39912 2.95403 7.36878 2.90624 7.32662 2.87142C7.28414 2.83632 7.23182 2.81581 7.17689 2.81254C6.92171 2.93697 7.12252 3.46858 7.69815 5.13274C8.27379 6.79689 8.5053 7.47579 9.29908 9.50303C6.92604 9.21096 4.53757 9.05964 2.14641 9.04907C2.11752 9.04514 2.08826 9.04702 2.06018 9.05485C2.03204 9.06208 2.00568 9.07521 1.98278 9.09286C1.95928 9.11057 1.93985 9.13276 1.92557 9.15809C1.91097 9.18314 1.90146 9.21075 1.89754 9.23965C1.89361 9.26854 1.89581 9.29807 1.90331 9.32588C1.91054 9.35402 1.92368 9.38038 1.94139 9.40388C1.95904 9.42678 1.98122 9.44621 2.00628 9.46081C2.03134 9.47542 2.05922 9.4846 2.08811 9.48853C4.23726 9.95635 6.40982 10.3066 8.59653 10.5379C2.76034 17.6021 2.07116 18.9527 0.993704 20.2569C0.97563 20.3029 0.972564 20.3536 0.98502 20.4015C0.997476 20.4495 1.0249 20.4921 1.0631 20.5237C1.1013 20.5552 1.14798 20.5739 1.19744 20.577C1.2469 20.5802 1.29607 20.5676 1.33786 20.5412C1.18821 20.7223 4.07872 17.777 9.81016 10.8396C11.3032 14.6026 11.8553 15.6682 12.6262 17.2804C13.3972 18.8926 13.4279 19.0399 13.6681 18.9336C13.9083 18.8272 13.8902 18.8123 13.2689 17.019C12.6476 15.2256 12.4365 14.4113 11.0104 10.8254C12.9438 11.0386 14.8878 11.1491 16.8329 11.1557C16.8618 11.1596 16.891 11.1577 16.9194 11.1502C16.9473 11.1427 16.9739 11.1298 16.9968 11.1122C17.02 11.0942 17.0398 11.0723 17.0538 11.0473C17.0687 11.0219 17.0778 10.994 17.0818 10.9651C17.0857 10.9362 17.0838 10.9069 17.0763 10.8791C17.0688 10.8507 17.0556 10.8244 17.0382 10.8011C17.0206 10.7782 16.9984 10.7588 16.973 10.7439C16.9477 10.7297 16.9201 10.7201 16.8912 10.7162C14.8703 10.2608 12.8263 9.91522 10.7679 9.68029C15.8078 3.543 16.545 2.1711 17.6374 0.848818C17.6555 0.802796 17.6586 0.752132 17.6461 0.704161C17.6337 0.65619 17.6066 0.613864 17.5684 0.582303C17.5302 0.550741 17.4832 0.531848 17.4337 0.528667C17.3843 0.525486 17.3351 0.538057 17.2933 0.564489Z" fill="white"/>
</svg>
